<svg width="10" height="13" viewBox="0 0 10 13" fill="none" xmlns="http://www.w3.org/2000/svg">
<path d="M2.80006 10.0911V10.6334C2.80064 11.1194 2.99398 11.5854 3.33767 11.9291C3.68136 12.2728 4.14733 12.4661 4.63338 12.4667H5.36671C5.85276 12.4661 6.31874 12.2728 6.66243 11.9291C7.00612 11.5854 7.19946 11.1194 7.20004 10.6334V10.0911C7.97315 9.68883 8.6212 9.08236 9.07372 8.33757C9.52624 7.59278 9.76592 6.73819 9.7667 5.86671V3.66671C9.7667 3.19922 9.31973 2.84502 8.39977 2.58432C8.39327 2.58222 8.38666 2.58051 8.37997 2.57918C8.19407 2.52785 7.99424 2.48165 7.78267 2.44022L8.11267 2.11022C8.18141 2.04146 8.22002 1.94821 8.22002 1.85099C8.22002 1.75376 8.18141 1.66051 8.11267 1.59176L7.07501 0.554092C7.00625 0.485353 6.913 0.446738 6.81577 0.446738C6.71855 0.446738 6.6253 0.485353 6.55654 0.554092L6.10004 1.01059V0.366726C6.10004 0.269481 6.06141 0.176218 5.99265 0.107455C5.92389 0.0386917 5.83062 6.10352e-05 5.73338 6.10352e-05H4.26672C4.16947 6.10352e-05 4.07621 0.0386917 4.00744 0.107455C3.93868 0.176218 3.90005 0.269481 3.90005 0.366726V1.01059L3.44429 0.554826C3.37553 0.486086 3.28228 0.447471 3.18505 0.447471C3.08783 0.447471 2.99458 0.486086 2.92582 0.554826L1.88816 1.59249C1.81942 1.66125 1.7808 1.75449 1.7808 1.85172C1.7808 1.94895 1.81942 2.04219 1.88816 2.11095L2.21816 2.44095C2.00659 2.48238 1.80676 2.52858 1.62086 2.57992C1.61426 2.57992 1.60766 2.58285 1.60069 2.58505C1.59373 2.58725 1.58273 2.59092 1.57319 2.59385C1.5666 2.59554 1.56011 2.59762 1.55376 2.60008C0.667163 2.86005 0.233398 3.20765 0.233398 3.66671V5.86671C0.234174 6.73819 0.473852 7.59278 0.926375 8.33757C1.3789 9.08236 2.02694 9.68883 2.80006 10.0911ZM6.46671 10.6334C6.46671 10.9251 6.35082 11.2049 6.14453 11.4112C5.93824 11.6175 5.65845 11.7333 5.36671 11.7333H4.63338C4.34165 11.7333 4.06186 11.6175 3.85557 11.4112C3.64928 11.2049 3.53339 10.9251 3.53339 10.6334V10.4002C4.48645 10.711 5.51364 10.711 6.46671 10.4002V10.6334ZM8.6667 3.45258C8.79632 3.50056 8.91538 3.57328 9.01723 3.66671C8.91538 3.76014 8.79632 3.83287 8.6667 3.88085V3.45258ZM3.18505 1.33252L3.79482 1.94339C3.84815 1.99705 3.91677 2.03291 3.99127 2.04603C4.06578 2.05916 4.14253 2.04892 4.21098 2.01672C4.26845 1.98921 4.32732 1.96473 4.38735 1.94339C4.45956 1.91823 4.5221 1.87113 4.56622 1.80867C4.61033 1.74621 4.63382 1.67152 4.63338 1.59505V0.733392H5.36671V1.59505C5.36674 1.67115 5.39043 1.74534 5.43452 1.80736C5.4786 1.86938 5.54089 1.91615 5.61275 1.94119C5.67287 1.96259 5.73186 1.98707 5.78948 2.01452C5.85789 2.04664 5.93456 2.05683 6.00899 2.04371C6.08342 2.03058 6.15198 1.99477 6.20528 1.94119L6.81504 1.33252L7.33424 1.85172L6.72337 2.46149C6.66971 2.51481 6.63386 2.58343 6.62073 2.65794C6.6076 2.73245 6.61784 2.80919 6.65004 2.87765C6.67755 2.93549 6.70203 2.99473 6.72337 3.05512C6.74872 3.12712 6.7959 3.18942 6.85834 3.23333C6.92078 3.27724 6.99537 3.30056 7.07171 3.30005H7.93337V4.03338H7.07171C6.99581 4.0334 6.92179 4.05697 6.85986 4.10084C6.79793 4.14471 6.75114 4.20672 6.72594 4.27831C6.72227 4.28931 6.71677 4.29921 6.71311 4.30984C6.57488 4.32451 6.43444 4.33734 6.29071 4.34834C6.40456 4.13907 6.46501 3.90494 6.46671 3.66671C6.46671 3.27773 6.31219 2.90468 6.03713 2.62963C5.76208 2.35458 5.38903 2.20005 5.00005 2.20005C4.61106 2.20005 4.23801 2.35458 3.96296 2.62963C3.68791 2.90468 3.53339 3.27773 3.53339 3.66671C3.53508 3.90494 3.59554 4.13907 3.70939 4.34834C3.56565 4.33734 3.42559 4.32451 3.28735 4.30984C3.28332 4.29958 3.27855 4.29004 3.27452 4.27941C3.24949 4.20756 3.20272 4.14527 3.1407 4.10119C3.07868 4.0571 3.00448 4.0334 2.92839 4.03338H2.06673V3.30005H2.92839C3.00448 3.30002 3.07868 3.27633 3.1407 3.23224C3.20272 3.18816 3.24949 3.12587 3.27452 3.05402C3.29586 2.99398 3.32034 2.93511 3.34785 2.87765C3.38006 2.80919 3.3903 2.73245 3.37717 2.65794C3.36404 2.58343 3.32818 2.51481 3.27452 2.46149L2.66586 1.85172L3.18505 1.33252ZM4.26672 3.66671C4.26629 3.5226 4.30833 3.38155 4.3876 3.26119C4.46687 3.14083 4.57984 3.04649 4.71241 2.98997C4.84498 2.93344 4.99126 2.91723 5.13299 2.94336C5.27472 2.96948 5.40561 3.03679 5.50931 3.13687C5.613 3.23696 5.68491 3.36537 5.71605 3.50609C5.74719 3.6468 5.73618 3.79357 5.68439 3.92806C5.6326 4.06255 5.54233 4.1788 5.42486 4.26228C5.30739 4.34577 5.16792 4.39279 5.02388 4.39748H4.97621C4.78633 4.3913 4.60625 4.31168 4.4739 4.17536C4.34156 4.03905 4.26728 3.8567 4.26672 3.66671ZM1.33339 3.45258V3.88085C1.20374 3.83272 1.08459 3.76001 0.982495 3.66671C1.08459 3.57342 1.20374 3.50071 1.33339 3.45258ZM0.966729 4.51958C1.1714 4.61272 1.38314 4.68947 1.59996 4.74911C1.60693 4.75131 1.61353 4.75278 1.62013 4.75424C2.05271 4.87005 2.49278 4.95581 2.93719 5.01091C3.62156 5.09492 4.31054 5.13582 5.00005 5.13337C5.68995 5.13529 6.37929 5.0939 7.06401 5.00944C7.50803 4.9542 7.94773 4.86844 8.37997 4.75278C8.38666 4.75145 8.39327 4.74974 8.39977 4.74764C8.40967 4.74508 8.41737 4.74178 8.42727 4.73921C8.43717 4.73664 8.44083 4.73554 8.44743 4.73261C8.64806 4.67582 8.84416 4.60412 9.0341 4.51811V5.86671C9.0341 6.93641 8.60916 7.9623 7.85277 8.71869C7.09637 9.47509 6.07048 9.90002 5.00078 9.90002C3.93108 9.90002 2.90519 9.47509 2.14879 8.71869C1.3924 7.9623 0.967463 6.93641 0.967463 5.86671L0.966729 4.51958Z" fill="#686868"/>
</svg>
