<svg width="8" height="12" viewBox="0 0 8 12" fill="none" xmlns="http://www.w3.org/2000/svg">
<path d="M0.328458 0.70566C0.22991 0.796801 0.151726 0.905058 0.0983816 1.02423C0.0450367 1.14341 0.0175781 1.27117 0.0175781 1.40019C0.0175781 1.52922 0.0450367 1.65697 0.0983816 1.77615C0.151726 1.89533 0.22991 2.00359 0.328458 2.09473L4.45305 5.91712L0.328458 9.73951C0.129693 9.92371 0.0180282 10.1735 0.0180282 10.434C0.0180282 10.6945 0.129693 10.9444 0.328458 11.1286C0.527223 11.3128 0.796806 11.4163 1.0779 11.4163C1.359 11.4163 1.62858 11.3128 1.82734 11.1286L6.7067 6.60672C6.80525 6.51558 6.88343 6.40733 6.93678 6.28815C6.99012 6.16897 7.01758 6.04122 7.01758 5.91219C7.01758 5.78317 6.99012 5.65541 6.93678 5.53623C6.88343 5.41706 6.80525 5.3088 6.7067 5.21766L1.82734 0.695809C1.42339 0.321451 0.743044 0.321451 0.328458 0.70566Z" fill="#2E7DF6"/>
</svg>
