<svg width="11" height="6" viewBox="0 0 11 6" fill="none" xmlns="http://www.w3.org/2000/svg">
<path fill-rule="evenodd" clip-rule="evenodd" d="M5.86707 5.77093C5.71917 5.91761 5.51862 6 5.3095 6C5.10038 6 4.89982 5.91761 4.75192 5.77093L0.290568 1.34511C0.215245 1.27294 0.155164 1.18661 0.113832 1.09116C0.0725002 0.995705 0.0507444 0.893043 0.0498345 0.789161C0.0489245 0.68528 0.0688787 0.582259 0.108532 0.486109C0.148186 0.38996 0.206745 0.302607 0.280793 0.229149C0.354841 0.15569 0.442894 0.0975976 0.539816 0.0582597C0.636737 0.0189218 0.740586 -0.000873164 0.845301 2.95397e-05C0.950017 0.000932243 1.0535 0.0225147 1.14972 0.0635176C1.24594 0.10452 1.33296 0.164122 1.40571 0.238846L5.3095 4.11154L9.21328 0.238846C9.36202 0.0963322 9.56123 0.0174745 9.76801 0.019257C9.97479 0.0210396 10.1726 0.10332 10.3188 0.248376C10.465 0.393433 10.548 0.589659 10.5498 0.794792C10.5516 0.999925 10.4721 1.19755 10.3284 1.34511L5.86707 5.77093Z" fill="#686868"/>
</svg>
