<svg width="15" height="16" viewBox="0 0 15 16" fill="none" xmlns="http://www.w3.org/2000/svg">
<mask id="path-1-inside-1_83_1184" fill="white">
<path d="M7.80582 15.1653C7.69249 15.1653 7.57915 15.1653 7.46582 15.1587C3.73249 14.992 0.612485 11.9853 0.352485 8.31867C0.125818 5.17201 1.94582 2.23201 4.87915 0.998673C5.71249 0.652006 6.15249 0.918672 6.33915 1.11201C6.52582 1.29867 6.78582 1.73201 6.43915 2.52534C6.13275 3.22965 5.97828 3.99064 5.98582 4.75867C5.99915 7.71201 8.45249 10.2187 11.4458 10.3387C11.8792 10.3587 12.3058 10.3253 12.7192 10.252C13.5992 10.092 13.9658 10.4453 14.1058 10.672C14.2458 10.8987 14.4058 11.3853 13.8725 12.1053C12.4592 14.0387 10.2125 15.1653 7.80582 15.1653ZM1.34582 8.24534C1.57249 11.4187 4.27915 14.0187 7.50582 14.1587C9.69915 14.2653 11.7792 13.2653 13.0592 11.5187C13.1592 11.3787 13.2058 11.2787 13.2258 11.2253C13.1658 11.2187 13.0592 11.212 12.8925 11.2453C12.4058 11.332 11.8992 11.3653 11.3992 11.3453C7.87915 11.2053 4.99915 8.25201 4.97915 4.77201C4.97915 3.85201 5.15915 2.96534 5.52582 2.13201C5.59248 1.98534 5.60582 1.88534 5.61249 1.83201C5.55249 1.83201 5.44582 1.84534 5.27249 1.91867C2.73249 2.98534 1.15915 5.53201 1.34582 8.24534Z"/>
</mask>
<path d="M7.80582 15.1653C7.69249 15.1653 7.57915 15.1653 7.46582 15.1587C3.73249 14.992 0.612485 11.9853 0.352485 8.31867C0.125818 5.17201 1.94582 2.23201 4.87915 0.998673C5.71249 0.652006 6.15249 0.918672 6.33915 1.11201C6.52582 1.29867 6.78582 1.73201 6.43915 2.52534C6.13275 3.22965 5.97828 3.99064 5.98582 4.75867C5.99915 7.71201 8.45249 10.2187 11.4458 10.3387C11.8792 10.3587 12.3058 10.3253 12.7192 10.252C13.5992 10.092 13.9658 10.4453 14.1058 10.672C14.2458 10.8987 14.4058 11.3853 13.8725 12.1053C12.4592 14.0387 10.2125 15.1653 7.80582 15.1653ZM1.34582 8.24534C1.57249 11.4187 4.27915 14.0187 7.50582 14.1587C9.69915 14.2653 11.7792 13.2653 13.0592 11.5187C13.1592 11.3787 13.2058 11.2787 13.2258 11.2253C13.1658 11.2187 13.0592 11.212 12.8925 11.2453C12.4058 11.332 11.8992 11.3653 11.3992 11.3453C7.87915 11.2053 4.99915 8.25201 4.97915 4.77201C4.97915 3.85201 5.15915 2.96534 5.52582 2.13201C5.59248 1.98534 5.60582 1.88534 5.61249 1.83201C5.55249 1.83201 5.44582 1.84534 5.27249 1.91867C2.73249 2.98534 1.15915 5.53201 1.34582 8.24534Z" fill="#636363"/>
<path d="M7.46582 15.1587L7.54412 13.8276L7.5347 13.8271L7.52528 13.8267L7.46582 15.1587ZM0.352485 8.31867L1.68248 8.22436L1.68237 8.22287L0.352485 8.31867ZM4.87915 0.998673L4.36703 -0.232397L4.36237 -0.230438L4.87915 0.998673ZM6.33915 1.11201L5.37995 2.03813L5.38807 2.04655L5.39634 2.05481L6.33915 1.11201ZM6.43915 2.52534L5.21737 1.99145L5.21651 1.99344L6.43915 2.52534ZM5.98582 4.75867L7.31916 4.75265L7.31909 4.74559L5.98582 4.75867ZM11.4458 10.3387L11.5073 9.00673L11.4992 9.00641L11.4458 10.3387ZM12.7192 10.252L12.9521 11.5648L12.9577 11.5638L12.7192 10.252ZM13.8725 12.1053L12.8011 11.3117L12.7961 11.3185L13.8725 12.1053ZM1.34582 8.24534L0.0156246 8.33685L0.0158735 8.34033L1.34582 8.24534ZM7.50582 14.1587L7.57059 12.8269L7.56362 12.8266L7.50582 14.1587ZM13.0592 11.5187L14.1346 12.3068L14.1394 12.3003L14.1441 12.2937L13.0592 11.5187ZM13.2258 11.2253L14.4743 11.6935L15.0758 10.0894L13.3731 9.90016L13.2258 11.2253ZM12.8925 11.2453L13.1263 12.558L13.1401 12.5555L13.154 12.5528L12.8925 11.2453ZM11.3992 11.3453L11.4524 10.0131L11.4521 10.0131L11.3992 11.3453ZM4.97915 4.77201H3.6458L3.64584 4.77967L4.97915 4.77201ZM5.52582 2.13201L4.312 1.58027L4.30865 1.58762L4.3054 1.59502L5.52582 2.13201ZM5.61249 1.83201L6.93552 1.99739L7.12286 0.498672H5.61249V1.83201ZM5.27249 1.91867L5.78874 3.14801L5.79201 3.14663L5.27249 1.91867ZM7.80582 13.832C7.68598 13.832 7.61183 13.8316 7.54412 13.8276L7.38752 16.4897C7.54648 16.4991 7.69899 16.4987 7.80582 16.4987V13.832ZM7.52528 13.8267C4.45354 13.6895 1.89356 11.2012 1.68248 8.22436L-0.977509 8.41298C-0.66859 12.7695 3.01143 16.2945 7.40635 16.4907L7.52528 13.8267ZM1.68237 8.22287C1.49734 5.6542 2.98253 3.24251 5.39594 2.22778L4.36237 -0.230438C0.909106 1.2215 -1.2457 4.68981 -0.977402 8.41447L1.68237 8.22287ZM5.39127 2.22973C5.5056 2.18217 5.57433 2.16903 5.60249 2.16541C5.62883 2.16202 5.62174 2.16659 5.59016 2.16028C5.5585 2.15395 5.51978 2.14017 5.47977 2.11693C5.44143 2.09466 5.40833 2.06753 5.37995 2.03813L7.29835 0.18588C7.05175 -0.0695309 6.66217 -0.344795 6.11314 -0.454602C5.56499 -0.564231 4.97546 -0.485496 4.36703 -0.232388L5.39127 2.22973ZM5.39634 2.05481C5.3705 2.02897 5.34533 1.99786 5.32406 1.96056C5.30184 1.92159 5.28739 1.88187 5.28046 1.8463C5.27348 1.81049 5.27758 1.79669 5.27527 1.81335C5.27271 1.83188 5.26182 1.88975 5.21737 1.99145L7.66093 3.05923C7.92105 2.46394 8.0041 1.88108 7.89785 1.33605C7.79213 0.793736 7.52259 0.409827 7.28196 0.169197L5.39634 2.05481ZM5.21651 1.99344C4.83534 2.86962 4.64317 3.81631 4.65255 4.77176L7.31909 4.74559C7.31339 4.16497 7.43017 3.58968 7.6618 3.05724L5.21651 1.99344ZM4.6525 4.76469C4.66913 8.44831 7.70351 11.5231 11.3924 11.6709L11.4992 9.00641C9.20147 8.91429 7.32917 6.9757 7.31914 4.75265L4.6525 4.76469ZM11.3843 11.6706C11.9262 11.6956 12.452 11.6536 12.9521 11.5648L12.4862 8.93917C12.1597 8.99711 11.8321 9.02175 11.5073 9.00676L11.3843 11.6706ZM12.9577 11.5638C13.0771 11.5421 13.1444 11.5441 13.17 11.5464C13.1937 11.5485 13.1834 11.5508 13.1519 11.5369C13.1204 11.523 13.0845 11.5003 13.0502 11.4687C13.0173 11.4384 12.9916 11.4053 12.9714 11.3727L15.2402 9.97135C15.0574 9.67529 14.7398 9.32277 14.2281 9.09706C13.7171 8.87168 13.126 8.82283 12.4806 8.94018L12.9577 11.5638ZM12.9714 11.3727C12.9541 11.3447 12.9373 11.3103 12.9253 11.2699C12.9127 11.2276 12.908 11.1869 12.9093 11.1528C12.9106 11.1186 12.9172 11.1099 12.9091 11.1312C12.9002 11.1542 12.8729 11.2148 12.8011 11.3117L14.9439 12.899C15.3366 12.3688 15.5526 11.8143 15.574 11.2546C15.5954 10.6952 15.4175 10.2583 15.2402 9.97135L12.9714 11.3727ZM12.7961 11.3185C11.6376 12.9032 9.79354 13.832 7.80582 13.832V16.4987C10.6314 16.4987 13.2807 15.1742 14.9489 12.8922L12.7961 11.3185ZM0.0158735 8.34033C0.291874 12.2043 3.55981 15.322 7.44802 15.4908L7.56362 12.8266C4.9985 12.7153 2.8531 10.633 2.67576 8.15034L0.0158735 8.34033ZM7.44105 15.4904C10.0818 15.6189 12.59 14.4145 14.1346 12.3068L11.9837 10.7305C10.9683 12.1161 9.31653 12.9118 7.57059 12.8269L7.44105 15.4904ZM14.1441 12.2937C14.3038 12.0701 14.4088 11.868 14.4743 11.6935L11.9774 10.7572C11.984 10.7394 11.9897 10.7263 11.9936 10.7178C11.9976 10.7091 12.0001 10.7045 12.0004 10.7038C12.0012 10.7024 11.9939 10.716 11.9742 10.7437L14.1441 12.2937ZM13.3731 9.90016C13.2011 9.88105 12.9543 9.87324 12.631 9.9379L13.154 12.5528C13.1659 12.5504 13.1602 12.5524 13.1395 12.5531C13.1296 12.5534 13.1182 12.5533 13.1059 12.5527C13.0935 12.552 13.0835 12.5511 13.0786 12.5505L13.3731 9.90016ZM12.6587 9.93266C12.2695 10.002 11.8591 10.0293 11.4524 10.0131L11.3459 12.6776C11.9392 12.7013 12.5422 12.662 13.1263 12.558L12.6587 9.93266ZM11.4521 10.0131C8.63215 9.9009 6.3283 7.51938 6.31246 4.76434L3.64584 4.77967C3.67001 8.98463 7.12616 12.5098 11.3462 12.6776L11.4521 10.0131ZM6.31249 4.77201C6.31249 4.02947 6.45697 3.32643 6.74624 2.66899L4.3054 1.59502C3.86134 2.60425 3.64582 3.67454 3.64582 4.77201H6.31249ZM6.73964 2.68374C6.88243 2.3696 6.91965 2.12439 6.93552 1.99739L4.28945 1.66663C4.2883 1.67581 4.28904 1.6691 4.2907 1.65924C4.2925 1.64859 4.29495 1.63636 4.29813 1.62362C4.30482 1.59688 4.31121 1.58199 4.312 1.58027L6.73964 2.68374ZM5.61249 0.498672C5.3393 0.498672 5.05538 0.562772 4.75297 0.690716L5.79201 3.14663C5.81547 3.1367 5.80897 3.14164 5.77628 3.14896C5.74126 3.1568 5.68524 3.16534 5.61249 3.16534V0.498672ZM4.75623 0.68934C1.6956 1.97465 -0.210578 5.04877 0.0156292 8.33685L2.67601 8.15383C2.52888 6.01524 3.76937 3.99603 5.78874 3.14801L4.75623 0.68934Z" fill="#636363" mask="url(#path-1-inside-1_83_1184)"/>
</svg>
