<svg width="22" height="18" viewBox="0 0 22 18" fill="none" xmlns="http://www.w3.org/2000/svg">
<path d="M21.3403 0H0.634371C0.279123 0 0 0.279661 0 0.635593V17.3644C0 17.7203 0.279123 18 0.634371 18H21.3656C21.7209 18 22 17.7203 22 17.3644V0.635593C21.9746 0.279661 21.6955 0 21.3403 0ZM18.752 1.16949C19.2595 0.915254 19.8939 1.14407 20.1476 1.65254C20.4014 2.16102 20.173 2.79661 19.6655 3.05085C19.158 3.30508 18.5236 3.07627 18.2699 2.5678C18.0415 2.0339 18.2445 1.39831 18.752 1.16949ZM15.3518 1.16949C15.8593 0.915254 16.4937 1.14407 16.7474 1.65254C17.0012 2.16102 16.7728 2.79661 16.2653 3.05085C15.7578 3.30508 15.1234 3.07627 14.8697 2.5678C14.6159 2.0339 14.8189 1.39831 15.3518 1.16949ZM11.9262 1.16949C12.4337 0.915254 13.0681 1.14407 13.3218 1.65254C13.5755 2.16102 13.3472 2.79661 12.8397 3.05085C12.3322 3.30508 11.6978 3.07627 11.4441 2.5678C11.1903 2.0339 11.4187 1.39831 11.9262 1.16949ZM1.26874 16.7288V4.44915H20.7313V16.7288H1.26874Z" fill="#686868"/>
<path d="M19.615 6.25364H19.5388L18.3208 6.30449L15.352 6.40618L15.4027 7.70279L17.179 7.62652L15.0982 9.81296L11.9518 6.635L10.1501 11.4401L5.58267 6.86381L2.36006 14.8214L3.55268 15.3045L6.03941 9.17737L10.6576 13.8045L12.4593 8.97398L15.1236 11.6435L18.1686 8.49093L18.0417 10.4486L19.3358 10.5248L19.5388 7.55025L19.615 6.32991V6.25364Z" fill="#686868"/>
</svg>
