<svg width="22" height="22" viewBox="0 0 22 22" fill="none" xmlns="http://www.w3.org/2000/svg">
<path d="M12.7337 6.36684C12.7337 5.1076 12.3603 3.87664 11.6607 2.82962C10.9611 1.78259 9.96671 0.966541 8.80333 0.48465C7.63994 0.0027587 6.35978 -0.123326 5.12473 0.12234C3.88969 0.368006 2.75523 0.974389 1.86481 1.86481C0.974389 2.75523 0.368006 3.88969 0.12234 5.12473C-0.123326 6.35978 0.0027587 7.63994 0.48465 8.80333C0.966541 9.96671 1.78259 10.9611 2.82962 11.6607C3.87664 12.3603 5.1076 12.7337 6.36684 12.7337C8.05479 12.7316 9.67302 12.0601 10.8666 10.8666C12.0601 9.67302 12.7316 8.05479 12.7337 6.36684ZM6.36684 2.53783C7.12415 2.53783 7.86445 2.7624 8.49413 3.18314C9.1238 3.60387 9.61458 4.20188 9.90438 4.90154C10.1942 5.6012 10.27 6.37109 10.1223 7.11384C9.97453 7.8566 9.60986 8.53886 9.07436 9.07436C8.53886 9.60986 7.8566 9.97453 7.11384 10.1223C6.37109 10.27 5.6012 10.1942 4.90154 9.90438C4.20188 9.61458 3.60387 9.1238 3.18314 8.49413C2.7624 7.86445 2.53783 7.12415 2.53783 6.36684C2.53922 5.35175 2.94308 4.37863 3.66086 3.66086C4.37863 2.94308 5.35175 2.53922 6.36684 2.53783ZM6.89065 11.6599V11.212C7.99539 11.0915 9.0259 10.5975 9.81171 9.81171C10.5975 9.0259 11.0915 7.99539 11.212 6.89065H11.6599C11.5358 8.11327 10.9935 9.25559 10.1246 10.1246C9.25559 10.9935 8.11327 11.5358 6.89065 11.6599ZM11.6599 5.84304H11.212C11.0916 4.738 10.5977 3.70714 9.81194 2.9209C9.02617 2.13465 7.99561 1.64011 6.89065 1.51903V1.0738C8.11363 1.19688 9.25648 1.7389 10.1256 2.60805C10.9948 3.4772 11.5368 4.62005 11.6599 5.84304ZM5.84304 1.0738V1.51903C4.73778 1.64001 3.70687 2.13446 2.92066 2.92066C2.13446 3.70687 1.64001 4.73778 1.51903 5.84304H1.0738C1.19592 4.61969 1.73763 3.4763 2.60697 2.60697C3.4763 1.73763 4.61969 1.19592 5.84304 1.0738ZM1.0738 6.89065H1.51903C1.64011 7.99561 2.13465 9.02617 2.9209 9.81194C3.70714 10.5977 4.738 11.0916 5.84304 11.212V11.6599C4.62005 11.5368 3.4772 10.9948 2.60805 10.1256C1.7389 9.25648 1.19688 8.11363 1.0738 6.89065Z" fill="#686868"/>
<path d="M5.96085 6.89089H6.77274C6.81306 6.88705 6.85374 6.89168 6.89216 6.90447C6.93059 6.91727 6.96592 6.93796 6.99588 6.9652C7.02585 6.99245 7.04979 7.02566 7.06617 7.0627C7.08255 7.09974 7.09101 7.13979 7.09101 7.18029C7.09101 7.22079 7.08255 7.26085 7.06617 7.29788C7.04979 7.33492 7.02585 7.36813 6.99588 7.39538C6.96592 7.42263 6.93059 7.44331 6.89216 7.45611C6.85374 7.46891 6.81306 7.47353 6.77274 7.46969H4.74038V8.5173H6.04989V9.00968H7.0975V8.48587C7.40323 8.39841 7.66772 8.20473 7.84342 7.93968C8.01911 7.67463 8.09448 7.35559 8.05597 7.03994C8.01746 6.72428 7.8676 6.43272 7.63333 6.21769C7.39907 6.00265 7.09577 5.87825 6.77798 5.86685H5.96608C5.92577 5.87069 5.88509 5.86606 5.84666 5.85327C5.80824 5.84047 5.77291 5.81979 5.74294 5.79254C5.71298 5.76529 5.68904 5.73208 5.67266 5.69504C5.65627 5.658 5.64781 5.61795 5.64781 5.57745C5.64781 5.53695 5.65627 5.4969 5.67266 5.45986C5.68904 5.42282 5.71298 5.38961 5.74294 5.36236C5.77291 5.33512 5.80824 5.31443 5.84666 5.30163C5.88509 5.28884 5.92577 5.28421 5.96608 5.28805H7.99844V4.24044H7.09226V3.72187H6.04465V4.21687H5.96085C5.78029 4.20888 5.59998 4.23754 5.4308 4.30112C5.26163 4.36471 5.10708 4.4619 4.97648 4.58684C4.84589 4.71178 4.74196 4.86188 4.67095 5.02808C4.59994 5.19428 4.56334 5.37315 4.56334 5.55388C4.56334 5.73461 4.59994 5.91347 4.67095 6.07968C4.74196 6.24588 4.84589 6.39597 4.97648 6.52091C5.10708 6.64585 5.26163 6.74305 5.4308 6.80663C5.59998 6.87022 5.78029 6.89888 5.96085 6.89089Z" fill="#686868"/>
<path d="M15.6332 9.26581C14.3739 9.26581 13.143 9.63922 12.0959 10.3388C11.0489 11.0384 10.2329 12.0328 9.75097 13.1962C9.26908 14.3596 9.14299 15.6397 9.38866 16.8748C9.63433 18.1098 10.2407 19.2443 11.1311 20.1347C12.0215 21.0251 13.156 21.6315 14.3911 21.8771C15.6261 22.1228 16.9063 21.9967 18.0696 21.5148C19.233 21.0329 20.2274 20.2169 20.927 19.1699C21.6266 18.1229 22 16.8919 22 15.6326C21.9979 13.9447 21.3265 12.3265 20.1329 11.1329C18.9393 9.93935 17.3211 9.26789 15.6332 9.26581ZM20.9262 15.1088H20.481C20.3599 14.0039 19.8654 12.9733 19.0791 12.1876C18.2929 11.4018 17.262 10.9079 16.157 10.7875V10.3396C17.38 10.4627 18.5228 11.0047 19.392 11.8739C20.2611 12.743 20.8031 13.8859 20.9262 15.1088ZM15.6332 19.4617C14.8759 19.4617 14.1356 19.2371 13.5059 18.8164C12.8762 18.3956 12.3854 17.7976 12.0956 17.0979C11.8058 16.3983 11.73 15.6284 11.8777 14.8856C12.0255 14.1429 12.3901 13.4606 12.9256 12.9251C13.4611 12.3896 14.1434 12.025 14.8862 11.8772C15.6289 11.7295 16.3988 11.8053 17.0985 12.0951C17.7981 12.3849 18.3961 12.8757 18.8169 13.5054C19.2376 14.135 19.4622 14.8753 19.4622 15.6326C19.4608 16.6477 19.0569 17.6209 18.3391 18.3386C17.6214 19.0564 16.6483 19.4603 15.6332 19.4617ZM15.1094 10.3396V10.7875C14.0046 10.908 12.9741 11.402 12.1883 12.1878C11.4025 12.9736 10.9085 14.0041 10.788 15.1088H10.3401C10.4642 13.8862 11.0065 12.7439 11.8754 11.8749C12.7444 11.006 13.8867 10.4636 15.1094 10.3396ZM10.3401 16.1565H10.788C10.9084 17.2615 11.4023 18.2923 12.1881 19.0786C12.9738 19.8648 14.0044 20.3594 15.1094 20.4805V20.9257C13.8864 20.8026 12.7435 20.2606 11.8744 19.3914C11.0052 18.5223 10.4632 17.3794 10.3401 16.1565ZM16.157 20.9257V20.4805C17.2622 20.3595 18.2931 19.865 19.0793 19.0788C19.8655 18.2926 20.36 17.2617 20.481 16.1565H20.9262C20.8041 17.3798 20.2624 18.5232 19.393 19.3925C18.5237 20.2619 17.3803 20.8036 16.157 20.9257Z" fill="#686868"/>
<path d="M16.2665 14.302L17.1649 14.4854L17.3718 13.4587L16.4761 13.2754C16.22 13.2239 15.9553 13.2348 15.7044 13.307C15.4534 13.3793 15.2235 13.5108 15.034 13.6906C14.8445 13.8703 14.701 14.0929 14.6156 14.3398C14.5302 14.5866 14.5053 14.8503 14.5432 15.1087V15.2187H13.9985V16.2663H14.5223L14.1425 18.0237H17.2591V16.9761H15.452L15.6039 16.2742H16.7615V15.2266H15.6065L15.5856 14.9987V14.9647C15.5701 14.8721 15.5774 14.7771 15.6068 14.6879C15.6362 14.5988 15.6869 14.5181 15.7544 14.4529C15.8219 14.3877 15.9043 14.3399 15.9945 14.3136C16.0846 14.2873 16.1798 14.2833 16.2718 14.302H16.2665Z" fill="#686868"/>
<path d="M5.17232 15.714L5.91612 16.4578L6.6573 15.714L4.6328 13.6895L2.56378 15.7559L3.30496 16.4997L4.12471 15.68C4.15114 16.4086 4.45895 17.0986 4.98348 17.6051C5.50801 18.1116 6.20841 18.395 6.93754 18.3959H8.42514V17.3483H6.93754C6.49174 17.3477 6.06252 17.1791 5.73539 16.8763C5.40826 16.5734 5.20722 16.1584 5.17232 15.714Z" fill="#686868"/>
<path d="M16.9898 6.61565L16.2382 5.87184L15.5048 6.61303L17.532 8.64277L19.5984 6.57636L18.8572 5.82994L18.0401 6.64969C18.0136 5.92011 17.7056 5.22912 17.1807 4.72175C16.6558 4.21438 15.9547 3.93008 15.2246 3.92853H13.7396V4.97614H15.2246C15.6713 4.97685 16.1012 5.1461 16.4284 5.45005C16.7557 5.75401 16.9562 6.17027 16.9898 6.61565Z" fill="#686868"/>
</svg>
