<svg width="22" height="22" viewBox="0 0 22 22" fill="none" xmlns="http://www.w3.org/2000/svg">
<path d="M19.8618 10.9625V20.7464C19.8618 21.4277 19.2936 22 18.6171 22H3.38301C2.70654 22 2.13831 21.4277 2.13831 20.7464V10.9625C1.40772 11.2623 0.595955 10.8263 0.433602 10.0632L0.0277203 8.18272C-0.080515 7.69216 0.135955 7.17436 0.541838 6.90183L10.283 0.224837C10.716 -0.0749458 11.2571 -0.0749458 11.6901 0.224837L21.4312 6.90183C21.8642 7.17436 22.0807 7.69216 21.9724 8.18272L21.5665 10.0632C21.4042 10.8263 20.5924 11.2623 19.8618 10.9625ZM18.7254 20.7464V10.1994L11.0677 4.96686C11.0136 4.93961 10.9595 4.93961 10.9324 4.96686L3.27478 10.1994V20.7464C3.27478 20.8009 3.3289 20.8554 3.38301 20.8554H7.27948V13.279C7.27948 12.5977 7.82066 12.0254 8.52419 12.0254H13.4759C14.1524 12.0254 14.7207 12.5977 14.7207 13.279V20.8554H18.6171C18.6712 20.8554 18.7254 20.8009 18.7254 20.7464ZM8.41595 20.8554H13.5842V13.279C13.5842 13.2245 13.5301 13.17 13.4759 13.17H8.52419C8.47007 13.17 8.41595 13.2245 8.41595 13.279V20.8554ZM10.9324 1.17869L1.19125 7.85568C1.13713 7.88294 1.13713 7.91019 1.13713 7.96469L1.54301 9.8179C1.57007 9.89966 1.62419 9.92691 1.70537 9.87241L10.283 4.01301C10.6889 3.74048 11.3112 3.74048 11.6901 4.01301L20.2948 9.87241C20.3489 9.92691 20.4301 9.89966 20.4571 9.8179L20.8359 7.96469C20.8359 7.93744 20.8359 7.88294 20.8089 7.85568L11.0677 1.17869C11.0136 1.15144 10.9595 1.15144 10.9324 1.17869Z" fill="#686868"/>
</svg>
