<svg width="25" height="32" viewBox="0 0 25 32" fill="none" xmlns="http://www.w3.org/2000/svg">
<path d="M21.2499 10.6667H19.7916V7.75004C19.7916 3.72504 16.5249 0.458374 12.4999 0.458374C8.47492 0.458374 5.20825 3.72504 5.20825 7.75004V10.6667H3.74992C2.14575 10.6667 0.833252 11.9792 0.833252 13.5834V28.1667C0.833252 29.7709 2.14575 31.0834 3.74992 31.0834H21.2499C22.8541 31.0834 24.1666 29.7709 24.1666 28.1667V13.5834C24.1666 11.9792 22.8541 10.6667 21.2499 10.6667ZM8.12492 7.75004C8.12492 5.32921 10.0791 3.37504 12.4999 3.37504C14.9208 3.37504 16.8749 5.32921 16.8749 7.75004V10.6667H8.12492V7.75004ZM21.2499 28.1667H3.74992V13.5834H21.2499V28.1667ZM12.4999 23.7917C14.1041 23.7917 15.4166 22.4792 15.4166 20.875C15.4166 19.2709 14.1041 17.9584 12.4999 17.9584C10.8958 17.9584 9.58325 19.2709 9.58325 20.875C9.58325 22.4792 10.8958 23.7917 12.4999 23.7917Z" fill="#686868"/>
</svg>
