<svg width="22" height="21" viewBox="0 0 22 21" fill="none" xmlns="http://www.w3.org/2000/svg">
<path d="M5.998 14.7425H7.17906C7.24853 14.7425 7.29485 14.696 7.29485 14.6261V12.9725C7.29485 12.9026 7.24853 12.856 7.17906 12.856H5.998C5.92853 12.856 5.88222 12.9026 5.88222 12.9725V14.6028C5.85906 14.6727 5.92853 14.7425 5.998 14.7425Z" fill="#686868"/>
<path d="M8.0822 14.7429H9.26325C9.33272 14.7429 9.37904 14.6963 9.37904 14.6264V11.4823C9.37904 11.4124 9.33272 11.3658 9.26325 11.3658H8.0822C8.01272 11.3658 7.96641 11.4124 7.96641 11.4823V14.6032C7.96641 14.673 8.01272 14.7429 8.0822 14.7429Z" fill="#686868"/>
<path d="M10.1895 14.7431H11.3705C11.44 14.7431 11.4863 14.6965 11.4863 14.6266V10.0385C11.4863 9.96858 11.44 9.922 11.3705 9.922H10.1895C10.12 9.922 10.0737 9.96858 10.0737 10.0385V14.6033C10.0737 14.6732 10.12 14.7431 10.1895 14.7431Z" fill="#686868"/>
<path d="M12.2968 14.7429H13.4778C13.5473 14.7429 13.5936 14.6963 13.5936 14.6264V8.57098C13.5936 8.50111 13.5473 8.45453 13.4778 8.45453H12.2968C12.2273 8.45453 12.181 8.50111 12.181 8.57098V14.6032C12.181 14.673 12.2273 14.7429 12.2968 14.7429Z" fill="#686868"/>
<path d="M14.404 14.7429H15.5851C15.6546 14.7429 15.7009 14.6963 15.7009 14.6264V11.4823C15.7009 11.4124 15.6546 11.3658 15.5851 11.3658H14.404C14.3346 11.3658 14.2883 11.4124 14.2883 11.4823V14.6032C14.2651 14.673 14.3346 14.7429 14.404 14.7429Z" fill="#686868"/>
<path d="M16.4882 14.7431H17.6693C17.7388 14.7431 17.7851 14.6965 17.7851 14.6266V10.0385C17.7851 9.96858 17.7388 9.922 17.6693 9.922H16.4882C16.4188 9.922 16.3724 9.96858 16.3724 10.0385V14.6033C16.3724 14.6732 16.4188 14.7431 16.4882 14.7431Z" fill="#686868"/>
<path d="M17.8548 15.8839H4.7243V8.85029C4.7243 8.52422 4.46956 8.26803 4.14535 8.26803C3.82114 8.26803 3.56641 8.52422 3.56641 8.85029V16.4662C3.56641 16.7923 3.82114 17.0484 4.14535 17.0484H17.8548C18.179 17.0484 18.4338 16.7923 18.4338 16.4662C18.4338 16.1401 18.179 15.8839 17.8548 15.8839Z" fill="#686868"/>
<path d="M20.1705 0H1.82947C0.810526 0 0 0.815158 0 1.83993V18.539C0 19.5638 0.810526 20.3789 1.82947 20.3789H20.1705C21.1895 20.3789 22 19.5638 22 18.539V1.83993C22 0.815158 21.1895 0 20.1705 0ZM1.82947 1.21109H20.1705C20.5179 1.21109 20.7726 1.49057 20.7726 1.81664V4.89095H1.22737V1.83993C1.22737 1.49057 1.48211 1.21109 1.82947 1.21109ZM20.1705 19.1446H1.82947C1.48211 19.1446 1.22737 18.8651 1.22737 18.539V6.12533H20.7958V18.539C20.7726 18.8651 20.5179 19.1446 20.1705 19.1446Z" fill="#686868"/>
<path d="M3.12641 3.77302C3.52289 3.77302 3.8443 3.44977 3.8443 3.05102C3.8443 2.65227 3.52289 2.32902 3.12641 2.32902C2.72992 2.32902 2.40851 2.65227 2.40851 3.05102C2.40851 3.44977 2.72992 3.77302 3.12641 3.77302Z" fill="#686868"/>
<path d="M5.34947 3.77302C5.74596 3.77302 6.06737 3.44977 6.06737 3.05102C6.06737 2.65227 5.74596 2.32902 5.34947 2.32902C4.95299 2.32902 4.63158 2.65227 4.63158 3.05102C4.63158 3.44977 4.95299 3.77302 5.34947 3.77302Z" fill="#686868"/>
<path d="M7.57254 3.77302C7.96902 3.77302 8.29044 3.44977 8.29044 3.05102C8.29044 2.65227 7.96902 2.32902 7.57254 2.32902C7.17606 2.32902 6.85465 2.65227 6.85465 3.05102C6.85465 3.44977 7.17606 3.77302 7.57254 3.77302Z" fill="#686868"/>
</svg>
