<svg width="22" height="15" viewBox="0 0 22 15" fill="none" xmlns="http://www.w3.org/2000/svg">
<path d="M21.4885 0H7.53514C7.23383 0 7.00204 0.23064 7.00204 0.530471V4.56667H8.06824V1.06094H20.9554V8.85656H8.06824V7.77256C8.02189 7.77256 7.95235 7.79562 7.906 7.79562H7.00204V9.38703C7.00204 9.68686 7.23383 9.91751 7.53514 9.91751H13.9787V11.4628L12.0781 13.354C11.8695 13.5616 11.8695 13.9076 12.0781 14.1151C12.2867 14.3227 12.6344 14.3227 12.843 14.1151L14.5118 12.4545L16.1807 14.1151C16.2965 14.2305 16.4124 14.2766 16.5515 14.2766C16.6906 14.2766 16.8296 14.2305 16.9224 14.1151C17.131 13.9076 17.131 13.5616 16.9224 13.354L15.0217 11.4628V9.91751H21.4653C21.7666 9.91751 21.9984 9.68686 21.9984 9.38703V0.530471C22.0216 0.23064 21.7898 0 21.4885 0Z" fill="#686868"/>
<path d="M8.16097 6.68854L8.48547 5.83517C8.555 5.65066 8.41593 5.46615 8.2305 5.46615H2.13461C1.16112 5.46615 0.349883 6.2042 0.257169 7.14982L0.00220817 9.45621C-0.0209701 9.68685 0.141278 9.89443 0.349883 9.94056C0.604844 9.98669 0.92934 10.0328 1.27701 10.0789L1.48562 13.723C1.5088 14.0229 1.76376 14.2766 2.06508 14.2766H3.84981C4.15112 14.2766 4.40609 14.0459 4.42926 13.723L4.73058 7.44965C4.73058 7.12675 4.98554 6.89611 5.31004 6.89611H7.88283C7.99872 6.87305 8.11461 6.80386 8.16097 6.68854Z" fill="#686868"/>
<path d="M2.96903 4.9357C4.03151 4.9357 4.89283 4.07863 4.89283 3.02139C4.89283 1.96415 4.03151 1.10708 2.96903 1.10708C1.90654 1.10708 1.04523 1.96415 1.04523 3.02139C1.04523 4.07863 1.90654 4.9357 2.96903 4.9357Z" fill="#686868"/>
<path d="M11.29 2.28334H10.8033C10.7106 2.28334 10.6179 2.35253 10.6179 2.46785V2.90607C9.96888 3.02139 9.52849 3.62105 9.59802 4.26684C9.66756 4.91263 10.247 5.39697 10.9192 5.39697H11.2437C11.3596 5.39697 11.4755 5.4431 11.545 5.53536C11.6145 5.62761 11.6609 5.74293 11.6609 5.85825C11.6377 6.06583 11.4523 6.22728 11.2205 6.22728H10.7801C10.6642 6.22728 10.5483 6.13502 10.5252 6.0197C10.502 5.95051 10.4324 5.88132 10.3629 5.88132H9.85298C9.80663 5.88132 9.76027 5.90438 9.71391 5.95051C9.69074 5.99664 9.66756 6.04276 9.66756 6.08889C9.71391 6.5963 10.1311 7.01145 10.641 7.08064V7.49579C10.641 7.58805 10.7106 7.68031 10.8265 7.68031H11.3132C11.4059 7.68031 11.4986 7.61111 11.4986 7.49579V7.05758C12.0549 6.94226 12.4721 6.48098 12.5185 5.95051C12.5648 5.58149 12.449 5.23553 12.194 4.98182C11.9622 4.72812 11.6145 4.56667 11.2437 4.56667H10.8728C10.7569 4.56667 10.641 4.52054 10.5715 4.42829C10.502 4.33603 10.4556 4.22071 10.4556 4.10539C10.4788 3.89782 10.6642 3.73637 10.896 3.73637H11.3364C11.4523 3.73637 11.5682 3.82862 11.5914 3.94394C11.6145 4.01314 11.6841 4.08233 11.7536 4.08233H12.2635C12.3099 4.08233 12.3562 4.05926 12.4026 4.01314C12.4258 3.96701 12.449 3.92088 12.449 3.87475C12.4026 3.36735 11.9854 2.95219 11.4755 2.883V2.46785C11.4755 2.35253 11.3828 2.28334 11.29 2.28334Z" fill="#686868"/>
<path d="M15.6012 4.42828C15.3926 4.28989 15.1144 4.33602 14.9522 4.52053L13.1906 6.91918C13.0516 7.12676 13.0979 7.40353 13.2833 7.56497C13.3529 7.6111 13.4456 7.65723 13.5615 7.65723C13.5847 7.65723 13.6078 7.65723 13.631 7.65723C13.7469 7.63417 13.8628 7.56497 13.9323 7.47272L15.4158 5.44309L16.4124 6.15807C16.621 6.29646 16.8992 6.25033 17.0614 6.06582L18.6375 3.92087L18.962 4.15151C19.0547 4.2207 19.1706 4.2207 19.2633 4.17457C19.3561 4.12844 19.4256 4.03619 19.4256 3.92087L19.4024 2.53703C19.4024 2.44477 19.3561 2.37558 19.2865 2.30639C19.217 2.26026 19.1243 2.2372 19.0316 2.26026L17.6872 2.65235C17.5945 2.67541 17.5018 2.76767 17.4786 2.88299C17.4554 2.99831 17.5018 3.09057 17.5945 3.15976L17.919 3.3904L16.621 5.16632L15.6012 4.42828Z" fill="#686868"/>
</svg>
