<svg width="22" height="22" viewBox="0 0 22 22" fill="none" xmlns="http://www.w3.org/2000/svg">
<path d="M4.60932 15.9677V14.9032C4.74213 14.8964 4.8743 14.9258 4.9917 14.9883C5.10911 15.0508 5.20734 15.144 5.2759 15.2581C5.30684 15.3117 5.35126 15.3563 5.40476 15.3874C5.45825 15.4185 5.51895 15.4351 5.58083 15.4355C5.64138 15.4362 5.70112 15.4214 5.75433 15.3925C5.80755 15.3636 5.85247 15.3215 5.88482 15.2702C5.91718 15.219 5.93588 15.1603 5.93914 15.0998C5.94241 15.0393 5.93013 14.9789 5.90348 14.9245C5.774 14.6969 5.58526 14.5087 5.35736 14.38C5.12946 14.2513 4.87093 14.1868 4.60932 14.1935V13.8387C4.60932 13.7446 4.57197 13.6543 4.50547 13.5878C4.43898 13.5213 4.3488 13.4839 4.25476 13.4839C4.16072 13.4839 4.07054 13.5213 4.00405 13.5878C3.93755 13.6543 3.9002 13.7446 3.9002 13.8387V14.1935C3.54805 14.1721 3.20164 14.2904 2.93613 14.5229C2.67062 14.7554 2.50742 15.0833 2.48194 15.4355C2.50742 15.7876 2.67062 16.1155 2.93613 16.348C3.20164 16.5805 3.54805 16.6989 3.9002 16.6774V17.7419C3.76739 17.7488 3.63522 17.7194 3.51782 17.6569C3.40041 17.5944 3.30218 17.5011 3.23362 17.3871C3.20268 17.3335 3.15826 17.2889 3.10476 17.2577C3.05127 17.2266 2.99057 17.2101 2.92869 17.2097C2.86814 17.2089 2.8084 17.2238 2.75519 17.2527C2.70197 17.2816 2.65705 17.3237 2.6247 17.3749C2.59234 17.4262 2.57364 17.4848 2.57038 17.5454C2.56711 17.6059 2.57939 17.6662 2.60604 17.7206C2.73552 17.9482 2.92426 18.1364 3.15216 18.2651C3.38006 18.3939 3.63859 18.4583 3.9002 18.4516V18.8065C3.9002 18.9006 3.93755 18.9908 4.00405 19.0574C4.07054 19.1239 4.16072 19.1613 4.25476 19.1613C4.3488 19.1613 4.43898 19.1239 4.50547 19.0574C4.57197 18.9908 4.60932 18.9006 4.60932 18.8065V18.4516C4.96147 18.4731 5.30788 18.3547 5.57339 18.1222C5.8389 17.8897 6.0021 17.5618 6.02758 17.2097C6.0021 16.8575 5.8389 16.5296 5.57339 16.2971C5.30788 16.0646 4.96147 15.9463 4.60932 15.9677ZM3.9002 15.9677C3.51727 15.9677 3.19107 15.7229 3.19107 15.4355C3.19107 15.1481 3.51727 14.9032 3.9002 14.9032V15.9677ZM4.60932 17.7419V16.6774C4.99225 16.6774 5.31845 16.9223 5.31845 17.2097C5.31845 17.4971 4.99225 17.7419 4.60932 17.7419Z" fill="#686868"/>
<path d="M20.2101 21.2903H2.48194C2.28612 21.2903 2.12738 21.4492 2.12738 21.6452C2.12738 21.8411 2.28612 22 2.48194 22H20.2101C20.4059 22 20.5647 21.8411 20.5647 21.6452C20.5647 21.4492 20.4059 21.2903 20.2101 21.2903Z" fill="#686868"/>
<path d="M10.2823 14.9032C10.2823 14.7073 10.1236 14.5484 9.92777 14.5484C9.73195 14.5484 9.57321 14.7073 9.57321 14.9032V20.2258C9.57321 20.4218 9.73195 20.5806 9.92777 20.5806C10.1236 20.5806 10.2823 20.4218 10.2823 20.2258V14.9032Z" fill="#686868"/>
<path d="M13.1188 17.0323C13.1188 16.8363 12.9601 16.6774 12.7643 16.6774C12.5685 16.6774 12.4097 16.8363 12.4097 17.0323V20.2258C12.4097 20.4218 12.5685 20.5806 12.7643 20.5806C12.9601 20.5806 13.1188 20.4218 13.1188 20.2258V17.0323Z" fill="#686868"/>
<path d="M15.9553 17.0323C15.9553 16.8363 15.7966 16.6774 15.6008 16.6774C15.405 16.6774 15.2462 16.8363 15.2462 17.0323V20.2258C15.2462 20.4218 15.405 20.5806 15.6008 20.5806C15.7966 20.5806 15.9553 20.4218 15.9553 20.2258V17.0323Z" fill="#686868"/>
<path d="M18.7919 14.5484C18.7919 14.3524 18.6331 14.1935 18.4373 14.1935C18.2415 14.1935 18.0827 14.3524 18.0827 14.5484V20.2258C18.0827 20.4218 18.2415 20.5806 18.4373 20.5806C18.6331 20.5806 18.7919 20.4218 18.7919 20.2258V14.5484Z" fill="#686868"/>
<path d="M21.5965 9.58023L18.1182 9.90313C18.0554 9.90923 17.9953 9.93199 17.9442 9.96908C17.8931 10.0062 17.8529 10.0562 17.8276 10.1141C17.8023 10.172 17.7929 10.2355 17.8003 10.2983C17.8078 10.361 17.8318 10.4206 17.87 10.4709L18.8415 11.7377L14.1825 15.5167L13.1898 14.7751L12.9416 11.3757C12.9349 11.3025 12.9511 11.2291 12.988 11.1655C13.0248 11.102 13.0804 11.0514 13.1472 11.0209L17.402 8.89184C17.6714 8.76017 17.8836 8.53485 17.9991 8.25797C18.1146 7.98109 18.1254 7.6716 18.0295 7.38733C17.9693 7.22726 17.8781 7.08068 17.7611 6.95599C17.6442 6.8313 17.5037 6.73096 17.3479 6.66073C17.1921 6.5905 17.0239 6.55177 16.8531 6.54676C16.6823 6.54175 16.5121 6.57055 16.3525 6.63152L13.7571 7.63217C12.6811 8.04578 11.5493 8.29576 10.3993 8.37378C11.052 8.17863 11.6128 7.75494 11.979 7.18013C12.3453 6.60532 12.4926 5.91781 12.3941 5.24325C12.2955 4.56869 11.9577 3.95214 11.4424 3.50631C10.927 3.06048 10.2686 2.81515 9.5874 2.81515C8.9062 2.81515 8.24775 3.06048 7.73241 3.50631C7.21706 3.95214 6.87925 4.56869 6.78072 5.24325C6.68219 5.91781 6.82951 6.60532 7.19577 7.18013C7.56203 7.75494 8.12275 8.17863 8.77545 8.37378C7.62554 8.29539 6.49379 8.04542 5.41773 7.63217L2.80815 6.65281C2.64363 6.58997 2.4682 6.56074 2.29222 6.56683C2.11623 6.57293 1.94324 6.61423 1.78346 6.6883C1.63357 6.75683 1.49911 6.85504 1.3882 6.97702C1.27729 7.09899 1.19223 7.24219 1.13815 7.39797C1.08811 7.52815 1.06285 7.66656 1.06369 7.80604C1.06446 8.03805 1.13166 8.26497 1.25734 8.45993C1.38303 8.65489 1.56192 8.80971 1.77282 8.90604L6.02758 11.0351C6.09369 11.0662 6.14858 11.117 6.18476 11.1805C6.22093 11.244 6.23662 11.3171 6.22968 11.3899L6.14813 12.5112C5.31945 12.0991 4.37912 11.9686 3.46966 12.1395C2.5602 12.3104 1.7312 12.7733 1.10831 13.4582C0.485416 14.143 0.102597 15.0124 0.0178752 15.9346C-0.0668469 16.8567 0.151146 17.7814 0.638814 18.5685C1.12648 19.3555 1.85723 19.962 2.72031 20.2959C3.58339 20.6299 4.53173 20.6732 5.42161 20.4192C6.31148 20.1653 7.09436 19.6279 7.65159 18.8886C8.20882 18.1492 8.51001 17.2482 8.50952 16.3222C8.51024 15.9036 8.44809 15.4874 8.32515 15.0873L9.97387 13.2528L13.9698 16.2512C14.0312 16.2973 14.1058 16.3222 14.1825 16.3222C14.2637 16.3225 14.3426 16.295 14.4059 16.2441L19.2741 12.2983L20.2456 13.5686C20.279 13.612 20.322 13.6471 20.3712 13.6711C20.4204 13.6951 20.4745 13.7074 20.5292 13.707H20.5895C20.6532 13.6959 20.7126 13.6675 20.7614 13.6249C20.8101 13.5824 20.8463 13.5274 20.8661 13.4657L21.9829 10.0451C22.0009 9.98936 22.0047 9.93007 21.9942 9.87249C21.9837 9.81491 21.9591 9.76083 21.9227 9.71507C21.8848 9.66605 21.8347 9.6278 21.7775 9.60415C21.7203 9.58049 21.6579 9.57224 21.5965 9.58023ZM7.44583 5.67701C7.44583 5.25592 7.5706 4.8443 7.80436 4.49418C8.03812 4.14406 8.37037 3.87118 8.7591 3.71004C9.14783 3.54889 9.57557 3.50673 9.98825 3.58888C10.4009 3.67103 10.78 3.8738 11.0775 4.17155C11.375 4.4693 11.5776 4.84866 11.6597 5.26165C11.7418 5.67464 11.6997 6.10272 11.5387 6.49175C11.3776 6.88078 11.105 7.21329 10.7551 7.44723C10.4053 7.68117 9.99397 7.80604 9.57321 7.80604C9.009 7.80604 8.46789 7.58173 8.06893 7.18246C7.66997 6.78319 7.44583 6.24166 7.44583 5.67701ZM4.25476 19.8706C3.5535 19.8706 2.86799 19.6624 2.28492 19.2725C1.70184 18.8826 1.24739 18.3285 0.979026 17.6801C0.710665 17.0317 0.64045 16.3182 0.777259 15.6299C0.914068 14.9416 1.25176 14.3093 1.74762 13.8131C2.24349 13.3168 2.87526 12.9789 3.56305 12.842C4.25083 12.705 4.96374 12.7753 5.61162 13.0439C6.2595 13.3125 6.81325 13.7673 7.20285 14.3508C7.59245 14.9343 7.8004 15.6204 7.8004 16.3222C7.8004 16.7881 7.70869 17.2496 7.5305 17.6801C7.35232 18.1106 7.09115 18.5018 6.76191 18.8313C6.43266 19.1608 6.04179 19.4221 5.61162 19.6004C5.18144 19.7788 4.72038 19.8706 4.25476 19.8706ZM12.2253 11.4325L12.431 14.2109L10.1405 12.4899C10.0698 12.437 9.98191 12.4124 9.89404 12.421C9.80617 12.4295 9.72464 12.4705 9.6654 12.536L8.02732 14.3599C7.73153 13.8028 7.31621 13.3181 6.81117 12.9406L6.92108 11.4502C6.93642 11.2387 6.88824 11.0273 6.78274 10.8434C6.67724 10.6594 6.51922 10.5111 6.32896 10.4177L2.0742 8.28862C1.9821 8.24677 1.90438 8.17866 1.85077 8.09282C1.79717 8.00698 1.77005 7.90723 1.77282 7.80604C1.77137 7.74765 1.78224 7.68961 1.80473 7.63571C1.82825 7.56804 1.86519 7.50581 1.91332 7.45277C1.96145 7.39972 2.01979 7.35694 2.08484 7.32701C2.23236 7.25937 2.40065 7.25299 2.55286 7.30926L5.14826 8.30991C8.00071 9.41007 11.1599 9.41007 14.0123 8.30991L16.6042 7.31281C16.6749 7.28401 16.7507 7.26952 16.827 7.27018C16.9034 7.27084 16.9789 7.28664 17.0491 7.31666C17.1193 7.34669 17.1829 7.39034 17.2362 7.44511C17.2894 7.49987 17.3313 7.56465 17.3594 7.63571C17.4002 7.75715 17.395 7.88937 17.3446 8.00717C17.2943 8.12497 17.2024 8.2201 17.0864 8.27442L12.8317 10.4035C12.6393 10.4946 12.4788 10.6414 12.3707 10.8248C12.2626 11.0083 12.212 11.22 12.2253 11.4325ZM20.398 12.5999L18.8238 10.5489L21.1249 10.336L20.398 12.5999Z" fill="#686868"/>
<path d="M2.83651 4.96774C3.15207 4.96774 3.46055 4.87409 3.72294 4.69864C3.98532 4.52318 4.18983 4.2738 4.31059 3.98203C4.43135 3.69025 4.46295 3.3692 4.40138 3.05945C4.33982 2.74971 4.18786 2.46519 3.96472 2.24188C3.74158 2.01857 3.45728 1.86649 3.14778 1.80488C2.83828 1.74326 2.51747 1.77489 2.22592 1.89574C1.93438 2.0166 1.68519 2.22126 1.50987 2.48385C1.33455 2.74644 1.24097 3.05516 1.24097 3.37097C1.24191 3.79417 1.41031 4.19977 1.70933 4.49902C2.00835 4.79827 2.41363 4.9668 2.83651 4.96774ZM2.83651 2.48387C3.01182 2.48387 3.1832 2.5359 3.32897 2.63337C3.47474 2.73085 3.58835 2.8694 3.65544 3.03149C3.72253 3.19359 3.74009 3.37195 3.70588 3.54403C3.67168 3.71611 3.58726 3.87418 3.46329 3.99824C3.33933 4.1223 3.18138 4.20679 3.00944 4.24102C2.83749 4.27525 2.65926 4.25768 2.49729 4.19054C2.33532 4.1234 2.19688 4.0097 2.09949 3.86381C2.00209 3.71793 1.9501 3.54642 1.9501 3.37097C1.9501 3.1357 2.04349 2.91006 2.20972 2.7437C2.37596 2.57733 2.60142 2.48387 2.83651 2.48387Z" fill="#686868"/>
<path d="M19.8555 6.74194C19.8555 6.54596 19.6968 6.3871 19.501 6.3871C19.3052 6.3871 19.1464 6.54596 19.1464 6.74194C19.1464 6.93791 19.3052 7.09677 19.501 7.09677C19.6968 7.09677 19.8555 6.93791 19.8555 6.74194Z" fill="#686868"/>
<path d="M10.6369 0H10.2823C10.0865 0 9.92777 0.158867 9.92777 0.354839C9.92777 0.550811 10.0865 0.709677 10.2823 0.709677H10.6369C10.8327 0.709677 10.9915 0.550811 10.9915 0.354839C10.9915 0.158867 10.8327 0 10.6369 0Z" fill="#686868"/>
<path d="M15.2462 4.96774C15.2462 4.77177 15.0875 4.6129 14.8917 4.6129C14.6958 4.6129 14.5371 4.77177 14.5371 4.96774C14.5371 5.16371 14.6958 5.32258 14.8917 5.32258C15.0875 5.32258 15.2462 5.16371 15.2462 4.96774Z" fill="#686868"/>
<path d="M19.8553 1.38783C19.8389 1.32692 19.8066 1.27148 19.7618 1.22719C19.7169 1.18291 19.6611 1.1514 19.6 1.1359L15.5757 0.131704C15.5135 0.113756 15.4475 0.113196 15.385 0.130085C15.3225 0.146974 15.2658 0.180667 15.2211 0.227511C15.1786 0.270609 15.1478 0.323889 15.1316 0.382275C15.1155 0.440661 15.1146 0.50221 15.1289 0.561059L16.1465 4.57783C16.162 4.63896 16.1935 4.69486 16.2377 4.73977C16.282 4.78467 16.3374 4.81696 16.3983 4.83332C16.4288 4.83822 16.4599 4.83822 16.4904 4.83332C16.5374 4.83312 16.5838 4.82361 16.627 4.80534C16.6702 4.78707 16.7094 4.76039 16.7422 4.72687L19.7524 1.71783C19.7963 1.67616 19.8287 1.62397 19.8467 1.56621C19.8647 1.50845 19.8676 1.44705 19.8553 1.38783ZM16.6996 3.79719L15.9905 0.958478L18.827 1.66816L16.6996 3.79719Z" fill="#686868"/>
</svg>
