<svg width="27" height="30" viewBox="0 0 27 30" fill="none" xmlns="http://www.w3.org/2000/svg">
<path d="M18.3607 25.4046C18.2295 27.7803 16.2449 29.6667 13.8159 29.6667C11.3869 29.6667 9.40232 27.7803 9.27111 25.4046H2.18503C1.34551 25.4046 0.666504 24.7331 0.666504 23.9018V22.3961C0.666504 20.736 2.02629 19.3875 3.70204 19.3875C3.70007 19.3875 3.70099 13.37 3.70099 13.37C3.70099 9.13166 6.37429 5.41567 10.2757 3.9731V3.84097C10.2757 1.90436 11.863 0.333374 13.8159 0.333374C15.771 0.333374 17.3562 1.90341 17.3562 3.84097V3.97319C21.2575 5.41594 23.9309 9.13256 23.9309 13.37V19.3866C25.6031 19.3875 26.9654 20.7355 26.9654 22.3961V23.9018C26.9654 24.7298 26.2841 25.4046 25.4468 25.4046H18.3607ZM16.3322 25.4046H11.2997C11.4266 26.6715 12.5047 27.661 13.8159 27.661C15.1272 27.661 16.2053 26.6715 16.3322 25.4046ZM24.9424 23.3989V22.3961C24.9424 21.8441 24.4867 21.3932 23.9298 21.3932C22.812 21.3932 21.9079 20.4972 21.9079 19.3866V13.37C21.9079 9.77219 19.4984 6.64316 16.0643 5.66097L15.3332 5.45186V3.84097C15.3332 3.01158 14.6542 2.33907 13.8159 2.33907C12.9795 2.33907 12.2987 3.01285 12.2987 3.84097V5.45184L11.5675 5.66093C8.13325 6.64301 5.72398 9.77132 5.72398 13.37V19.3866C5.72398 20.494 4.81762 21.3932 3.70204 21.3932C3.14367 21.3932 2.68949 21.8436 2.68949 22.3961V23.3989H24.9424Z" fill="#2E7DF6"/>
</svg>
