<svg width="22" height="20" viewBox="0 0 22 20" fill="none" xmlns="http://www.w3.org/2000/svg">
<path d="M20.5 17C20.3674 17 20.2402 17.0527 20.1464 17.1464C20.0527 17.2402 20 17.3674 20 17.5V19H1V8H20V9.5C20 9.63261 20.0527 9.75979 20.1464 9.85355C20.2402 9.94732 20.3674 10 20.5 10C20.6326 10 20.7598 9.94732 20.8536 9.85355C20.9473 9.75979 21 9.63261 21 9.5V8C21 7.73478 20.8946 7.48043 20.7071 7.29289C20.5196 7.10536 20.2652 7 20 7V5.5C20 5.23478 19.8946 4.98043 19.7071 4.79289C19.5196 4.60536 19.2652 4.5 19 4.5H16.5V0.5C16.5 0.367392 16.4473 0.240215 16.3536 0.146447C16.2598 0.0526785 16.1326 0 16 0H5C4.86739 0 4.74021 0.0526785 4.64645 0.146447C4.55268 0.240215 4.5 0.367392 4.5 0.5V4.5H2C1.46957 4.5 0.960859 4.71071 0.585786 5.08579C0.210714 5.46086 0 5.96957 0 6.5V19C0 19.2652 0.105357 19.5196 0.292893 19.7071C0.48043 19.8946 0.734784 20 1 20H20C20.2652 20 20.5196 19.8946 20.7071 19.7071C20.8946 19.5196 21 19.2652 21 19V17.5C21 17.3674 20.9473 17.2402 20.8536 17.1464C20.7598 17.0527 20.6326 17 20.5 17ZM5.5 6.621C6.15779 6.51568 6.76567 6.20575 7.23726 5.73523C7.70886 5.26472 8.02018 4.65755 8.127 4H12.873C12.9798 4.65755 13.2911 5.26472 13.7627 5.73523C14.2343 6.20575 14.8422 6.51568 15.5 6.621V7H5.5V6.621ZM12.8335 3H8.1665V1H12.8335V3ZM19 5.5V7H16.5V5.5H19ZM15.5 5.603C15.0264 5.49057 14.6044 5.22197 14.3021 4.84046C13.9998 4.45895 13.8347 3.98677 13.8335 3.5V1H15.5V5.603ZM5.5 1H7.1665V3.5C7.16528 3.98677 7.00022 4.45895 6.6979 4.84046C6.39557 5.22197 5.97361 5.49057 5.5 5.603V1ZM2 5.5H4.5V7H1V6.5C1 6.23478 1.10536 5.98043 1.29289 5.79289C1.48043 5.60536 1.73478 5.5 2 5.5Z" fill="#686868"/>
<path d="M19 9.5C19 9.36739 18.9473 9.24021 18.8536 9.14645C18.7598 9.05268 18.6326 9 18.5 9H2.5C2.36739 9 2.24021 9.05268 2.14645 9.14645C2.05268 9.24021 2 9.36739 2 9.5V13.5C2 13.6326 2.05268 13.7598 2.14645 13.8536C2.24021 13.9473 2.36739 14 2.5 14C2.63261 14 2.75979 13.9473 2.85355 13.8536C2.94732 13.7598 3 13.6326 3 13.5V10H18.5C18.6326 10 18.7598 9.94732 18.8536 9.85355C18.9473 9.75979 19 9.63261 19 9.5Z" fill="#686868"/>
<path d="M8.52551 18H18.5C18.6326 18 18.7598 17.9473 18.8536 17.8536C18.9473 17.7598 19 17.6326 19 17.5C19 17.3674 18.9473 17.2402 18.8536 17.1464C18.7598 17.0527 18.6326 17 18.5 17H8.52551C8.3929 17 8.26573 17.0527 8.17196 17.1464C8.07819 17.2402 8.02551 17.3674 8.02551 17.5C8.02551 17.6326 8.07819 17.7598 8.17196 17.8536C8.26573 17.9473 8.3929 18 8.52551 18Z" fill="#686868"/>
<path d="M3.5 15C3.10218 15 2.72064 15.158 2.43934 15.4393C2.15804 15.7206 2 16.1022 2 16.5C2 16.8978 2.15804 17.2794 2.43934 17.5607C2.72064 17.842 3.10218 18 3.5 18H5.5C5.89782 18 6.27936 17.842 6.56066 17.5607C6.84196 17.2794 7 16.8978 7 16.5C7 16.1022 6.84196 15.7206 6.56066 15.4393C6.27936 15.158 5.89782 15 5.5 15H3.5ZM6 16.5C6 16.6326 5.94732 16.7598 5.85355 16.8536C5.75979 16.9473 5.63261 17 5.5 17H3.5C3.36739 17 3.24021 16.9473 3.14645 16.8536C3.05268 16.7598 3 16.6326 3 16.5C3 16.3674 3.05268 16.2402 3.14645 16.1464C3.24021 16.0527 3.36739 16 3.5 16H5.5C5.63261 16 5.75979 16.0527 5.85355 16.1464C5.94732 16.2402 6 16.3674 6 16.5Z" fill="#686868"/>
<path d="M21.35 11H19.5C18.837 11 18.2011 11.2634 17.7322 11.7322C17.2634 12.2011 17 12.837 17 13.5C17 14.163 17.2634 14.7989 17.7322 15.2678C18.2011 15.7366 18.837 16 19.5 16H21.35C21.5224 16 21.6877 15.9315 21.8096 15.8096C21.9315 15.6877 22 15.5224 22 15.35V11.65C22 11.4776 21.9315 11.3123 21.8096 11.1904C21.6877 11.0685 21.5224 11 21.35 11ZM21 15H19.5C19.1022 15 18.7206 14.842 18.4393 14.5607C18.158 14.2794 18 13.8978 18 13.5C18 13.1022 18.158 12.7206 18.4393 12.4393C18.7206 12.158 19.1022 12 19.5 12H21V15Z" fill="#686868"/>
</svg>
