<svg width="22" height="16" viewBox="0 0 22 16" fill="none" xmlns="http://www.w3.org/2000/svg">
<path d="M0.590604 0C0.265772 0 0 0.265 0 0.588889V5.06445C0 5.38833 0.265772 5.65333 0.590604 5.65333C1.77181 5.65333 2.71678 6.59556 2.71678 7.77333C2.71678 8.95111 1.77181 9.89333 0.590604 9.89333C0.265772 9.89333 0 10.1583 0 10.4822V14.9578C0 15.2817 0.265772 15.5467 0.590604 15.5467H21.4094C21.7342 15.5467 22 15.2817 22 14.9578V10.4233C22 10.2761 21.9409 10.0994 21.8228 10.0111C21.7047 9.89333 21.557 9.83444 21.3799 9.86389H21.3208C21.2913 9.86389 21.2913 9.86389 21.2617 9.86389C20.0805 9.86389 19.1356 8.92167 19.1356 7.74389C19.1356 6.56611 20.0805 5.62389 21.2617 5.62389C21.2913 5.62389 21.2913 5.62389 21.3208 5.62389H21.3799C21.557 5.62389 21.7047 5.565 21.8228 5.47667C21.9409 5.35889 22 5.21167 22 5.06445V0.588889C22 0.265 21.7342 0 21.4094 0H0.590604ZM20.8483 4.47556C19.2537 4.71111 18.0134 6.06556 18.0134 7.74389C18.0134 9.39278 19.2537 10.7767 20.8483 11.0122V14.3394H16.0644V13.8978C16.0644 13.5739 15.7987 13.3089 15.4738 13.3089C15.149 13.3089 14.8832 13.5739 14.8832 13.8978V14.3394H1.18121V10.9828C2.71678 10.7178 3.89799 9.36333 3.89799 7.74389C3.89799 6.12444 2.71678 4.79944 1.18121 4.505V1.17778H14.8537V1.61944C14.8537 1.94333 15.1195 2.20833 15.4443 2.20833C15.7691 2.20833 16.0349 1.94333 16.0349 1.61944V1.17778H20.8188V4.47556H20.8483Z" fill="#686868"/>
<path d="M15.4738 8.53889C15.149 8.53889 14.8832 8.80389 14.8832 9.12778V11.0711C14.8832 11.395 15.149 11.66 15.4738 11.66C15.7986 11.66 16.0644 11.395 16.0644 11.0711V9.12778C16.0644 8.80389 15.7986 8.53889 15.4738 8.53889Z" fill="#686868"/>
<path d="M15.4738 3.79834C15.149 3.79834 14.8832 4.06334 14.8832 4.38723V6.33056C14.8832 6.65445 15.149 6.91945 15.4738 6.91945C15.7986 6.91945 16.0644 6.65445 16.0644 6.33056V4.38723C16.0644 4.06334 15.7986 3.79834 15.4738 3.79834Z" fill="#686868"/>
<path d="M10.3651 6.12444L9.12483 3.56277L7.85503 6.12444L5.02013 6.53666L7.05772 8.50944L6.58523 11.3361L9.12483 10.0111L11.6349 11.3361L11.1624 8.50944L13.2 6.53666L10.3651 6.12444Z" fill="#686868"/>
</svg>
