<svg width="22" height="22" viewBox="0 0 22 22" fill="none" xmlns="http://www.w3.org/2000/svg">
<path d="M3.19412 3.5917C3.19412 3.41627 3.26092 3.24803 3.37982 3.12398C3.49872 2.99994 3.65998 2.93025 3.82813 2.93025H11.4793C11.6475 2.93025 11.8087 2.99994 11.9276 3.12398C12.0465 3.24803 12.1133 3.41627 12.1133 3.5917C12.1133 3.76713 12.0465 3.93537 11.9276 4.05942C11.8087 4.18347 11.6475 4.25316 11.4793 4.25316H3.82813C3.65998 4.25316 3.49872 4.18347 3.37982 4.05942C3.26092 3.93537 3.19412 3.76713 3.19412 3.5917ZM14.7635 5.8896H12.1412C11.9731 5.8896 11.8118 5.95929 11.6929 6.08333C11.574 6.20738 11.5072 6.37562 11.5072 6.55105C11.5072 6.72648 11.574 6.89473 11.6929 7.01877C11.8118 7.14282 11.9731 7.21251 12.1412 7.21251H14.7584C14.9265 7.21251 15.0878 7.14282 15.2067 7.01877C15.3256 6.89473 15.3924 6.72648 15.3924 6.55105C15.3924 6.37562 15.3256 6.20738 15.2067 6.08333C15.0878 5.95929 14.9265 5.8896 14.7584 5.8896H14.7635ZM14.7635 8.8463H12.1412C11.9731 8.8463 11.8118 8.91599 11.6929 9.04004C11.574 9.16409 11.5072 9.33233 11.5072 9.50776C11.5072 9.68319 11.574 9.85143 11.6929 9.97548C11.8118 10.0995 11.9731 10.1692 12.1412 10.1692H14.7584C14.9265 10.1692 15.0878 10.0995 15.2067 9.97548C15.3256 9.85143 15.3924 9.68319 15.3924 9.50776C15.3924 9.33233 15.3256 9.16409 15.2067 9.04004C15.0878 8.91599 14.9265 8.8463 14.7584 8.8463H14.7635ZM14.7635 11.803H12.1412C11.9731 11.803 11.8118 11.8727 11.6929 11.9967C11.574 12.1208 11.5072 12.289 11.5072 12.4645C11.5072 12.6399 11.574 12.8081 11.6929 12.9322C11.8118 13.0562 11.9731 13.1259 12.1412 13.1259H14.7584C14.9265 13.1259 15.0878 13.0562 15.2067 12.9322C15.3256 12.8081 15.3924 12.6399 15.3924 12.4645C15.3924 12.289 15.3256 12.1208 15.2067 11.9967C15.0878 11.8727 14.9265 11.803 14.7584 11.803H14.7635ZM14.7635 14.761H3.82813C3.65998 14.761 3.49872 14.8307 3.37982 14.9548C3.26092 15.0788 3.19412 15.2471 3.19412 15.4225C3.19412 15.5979 3.26092 15.7662 3.37982 15.8902C3.49872 16.0143 3.65998 16.0839 3.82813 16.0839H14.7635C14.9316 16.0839 15.0929 16.0143 15.2118 15.8902C15.3307 15.7662 15.3975 15.5979 15.3975 15.4225C15.3975 15.2471 15.3307 15.0788 15.2118 14.9548C15.0929 14.8307 14.9316 14.761 14.7635 14.761ZM14.7635 17.7191H3.82813C3.65998 17.7191 3.49872 17.7887 3.37982 17.9128C3.26092 18.0368 3.19412 18.2051 3.19412 18.3805C3.19412 18.5559 3.26092 18.7242 3.37982 18.8482C3.49872 18.9723 3.65998 19.042 3.82813 19.042H14.7635C14.9316 19.042 15.0929 18.9723 15.2118 18.8482C15.3307 18.7242 15.3975 18.5559 15.3975 18.3805C15.3975 18.2051 15.3307 18.0368 15.2118 17.9128C15.0929 17.7887 14.9316 17.7191 14.7635 17.7191ZM3.19412 12.4658V6.55237C3.19412 6.37695 3.26092 6.2087 3.37982 6.08466C3.49872 5.96061 3.65998 5.89092 3.82813 5.89092H9.49614C9.66429 5.89092 9.82555 5.96061 9.94445 6.08466C10.0633 6.2087 10.1301 6.37695 10.1301 6.55237V12.4658C10.1301 12.6412 10.0633 12.8095 9.94445 12.9335C9.82555 13.0576 9.66429 13.1272 9.49614 13.1272H3.82813C3.65998 13.1272 3.49872 13.0576 3.37982 12.9335C3.26092 12.8095 3.19412 12.6412 3.19412 12.4658ZM4.46213 11.8043H8.86213V7.21383H4.46213V11.8043ZM22 3.53879V19.5606C21.9993 20.2075 21.7526 20.8278 21.314 21.2852C20.8753 21.7426 20.2807 21.9996 19.6605 22H2.33948C1.71934 21.9996 1.12467 21.7426 0.686037 21.2852C0.247408 20.8278 0.000671791 20.2075 0 19.5606V1.98437C0 1.45808 0.200391 0.953349 0.557088 0.581208C0.913786 0.209068 1.39757 8.5142e-07 1.90202 8.5142e-07H14.1903C14.2739 -0.000138976 14.3566 0.0169453 14.4338 0.0502716C14.5105 0.0842026 14.5802 0.133151 14.6392 0.194468L15.9452 1.55442H20.1043C20.6077 1.55617 21.0898 1.76601 21.4452 2.13796C21.8005 2.50991 22 3.01364 22 3.53879ZM15.206 2.66567L14.8256 2.26879V3.28743C14.8256 3.46286 14.8924 3.63111 15.0113 3.75515C15.1302 3.8792 15.2915 3.94889 15.4596 3.94889H16.4296L15.2466 2.71064C15.2314 2.6908 15.2187 2.67625 15.206 2.66567ZM17.581 20.6771C17.4102 20.3319 17.321 19.949 17.321 19.5606V5.26518H15.4583C14.9539 5.26518 14.4701 5.05612 14.1134 4.68398C13.7567 4.31184 13.5563 3.80711 13.5563 3.28082V1.32291H1.90202C1.73387 1.32291 1.57261 1.3926 1.45371 1.51665C1.33481 1.64069 1.26801 1.80894 1.26801 1.98437V19.5606C1.26835 19.8568 1.38138 20.1408 1.58229 20.3501C1.78319 20.5595 2.05553 20.6771 2.33948 20.6771H17.581ZM20.732 3.53879C20.732 3.36336 20.6652 3.19511 20.5463 3.07107C20.4274 2.94702 20.2661 2.87733 20.098 2.87733H17.2031L18.4027 4.13542L18.4115 4.14997C18.5247 4.27029 18.5876 4.43249 18.5865 4.60108V19.5606C18.5865 19.857 18.6994 20.1414 18.9003 20.351C19.1013 20.5606 19.3738 20.6784 19.658 20.6784C19.9422 20.6784 20.2147 20.5606 20.4156 20.351C20.6166 20.1414 20.7295 19.857 20.7295 19.5606L20.732 3.53879Z" fill="#686868"/>
</svg>
