<svg width="20" height="22" viewBox="0 0 20 22" fill="none" xmlns="http://www.w3.org/2000/svg">
<path d="M5.5 4.76667H2.2C2.10275 4.76667 2.00949 4.8053 1.94073 4.87406C1.87196 4.94282 1.83333 5.03609 1.83333 5.13333C1.83333 5.23058 1.87196 5.32384 1.94073 5.39261C2.00949 5.46137 2.10275 5.5 2.2 5.5H5.5C5.59725 5.5 5.69051 5.46137 5.75927 5.39261C5.82804 5.32384 5.86667 5.23058 5.86667 5.13333C5.86667 5.03609 5.82804 4.94282 5.75927 4.87406C5.69051 4.8053 5.59725 4.76667 5.5 4.76667Z" fill="#686868"/>
<path d="M2.2 6.96667H2.56667C2.66391 6.96667 2.75718 6.92804 2.82594 6.85927C2.8947 6.79051 2.93333 6.69725 2.93333 6.6C2.93333 6.50275 2.8947 6.40949 2.82594 6.34073C2.75718 6.27196 2.66391 6.23333 2.56667 6.23333H2.2C2.10275 6.23333 2.00949 6.27196 1.94073 6.34073C1.87196 6.40949 1.83333 6.50275 1.83333 6.6C1.83333 6.69725 1.87196 6.79051 1.94073 6.85927C2.00949 6.92804 2.10275 6.96667 2.2 6.96667Z" fill="#686868"/>
<path d="M2.2 8.43333H2.56667C2.66391 8.43333 2.75718 8.3947 2.82594 8.32594C2.8947 8.25718 2.93333 8.16391 2.93333 8.06667C2.93333 7.96942 2.8947 7.87616 2.82594 7.80739C2.75718 7.73863 2.66391 7.7 2.56667 7.7H2.2C2.10275 7.7 2.00949 7.73863 1.94073 7.80739C1.87196 7.87616 1.83333 7.96942 1.83333 8.06667C1.83333 8.16391 1.87196 8.25718 1.94073 8.32594C2.00949 8.3947 2.10275 8.43333 2.2 8.43333Z" fill="#686868"/>
<path d="M2.2 9.9H2.56667C2.66391 9.9 2.75718 9.86137 2.82594 9.79261C2.8947 9.72384 2.93333 9.63058 2.93333 9.53333C2.93333 9.43609 2.8947 9.34282 2.82594 9.27406C2.75718 9.2053 2.66391 9.16667 2.56667 9.16667H2.2C2.10275 9.16667 2.00949 9.2053 1.94073 9.27406C1.87196 9.34282 1.83333 9.43609 1.83333 9.53333C1.83333 9.63058 1.87196 9.72384 1.94073 9.79261C2.00949 9.86137 2.10275 9.9 2.2 9.9Z" fill="#686868"/>
<path d="M2.2 11.3667H2.56667C2.66391 11.3667 2.75718 11.328 2.82594 11.2593C2.8947 11.1905 2.93333 11.0972 2.93333 11C2.93333 10.9028 2.8947 10.8095 2.82594 10.7407C2.75718 10.672 2.66391 10.6333 2.56667 10.6333H2.2C2.10275 10.6333 2.00949 10.672 1.94073 10.7407C1.87196 10.8095 1.83333 10.9028 1.83333 11C1.83333 11.0972 1.87196 11.1905 1.94073 11.2593C2.00949 11.328 2.10275 11.3667 2.2 11.3667Z" fill="#686868"/>
<path d="M15.0333 11C15.0333 10.9028 14.9947 10.8095 14.9259 10.7407C14.8572 10.672 14.7639 10.6333 14.6667 10.6333H4.4V6.6C4.4 6.50275 4.36137 6.40949 4.29261 6.34073C4.22384 6.27196 4.13058 6.23333 4.03333 6.23333C3.93609 6.23333 3.84282 6.27196 3.77406 6.34073C3.7053 6.40949 3.66667 6.50275 3.66667 6.6V11C3.66667 11.0972 3.7053 11.1905 3.77406 11.2593C3.84282 11.328 3.93609 11.3667 4.03333 11.3667H14.6667C14.7639 11.3667 14.8572 11.328 14.9259 11.2593C14.9947 11.1905 15.0333 11.0972 15.0333 11Z" fill="#686868"/>
<path d="M5.28 9.82667C5.31852 9.85556 5.36236 9.87658 5.409 9.88853C5.45565 9.90048 5.50419 9.90313 5.55185 9.89632C5.59952 9.88951 5.64538 9.87337 5.68681 9.84884C5.72825 9.82431 5.76444 9.79186 5.79333 9.75334L6.63969 8.62492L7.44072 9.42595C7.50066 9.4859 7.57951 9.52322 7.66387 9.53158C7.74823 9.53993 7.83288 9.5188 7.90341 9.47178L8.8 8.87402L9.69659 9.47174C9.74199 9.50201 9.79357 9.52176 9.84757 9.52957C9.90158 9.53737 9.95664 9.53302 10.0088 9.51684C10.0609 9.50065 10.1087 9.47305 10.1488 9.43602C10.1889 9.399 10.2202 9.3535 10.2404 9.30284L10.8376 7.81L12.3305 8.40716C12.4054 8.43711 12.488 8.44153 12.5657 8.41974C12.6433 8.39796 12.7116 8.35119 12.76 8.28667L13.86 6.82C13.9183 6.7422 13.9434 6.64442 13.9296 6.54815C13.9159 6.45188 13.8645 6.36502 13.7867 6.30667C13.7089 6.24832 13.6111 6.22327 13.5148 6.23702C13.4185 6.25077 13.3317 6.3022 13.2733 6.38L12.342 7.62209L10.7695 6.99311C10.7248 6.97522 10.677 6.96632 10.6288 6.9669C10.5807 6.96749 10.5331 6.97755 10.4889 6.99652C10.4446 7.01549 10.4045 7.04299 10.3709 7.07746C10.3372 7.11192 10.3107 7.15268 10.2928 7.19739L9.72735 8.61112L9.00318 8.1285C8.94294 8.08834 8.87217 8.06691 8.79977 8.06691C8.72737 8.06691 8.6566 8.08834 8.59636 8.1285L7.74675 8.69486L6.85928 7.80739C6.82213 7.77024 6.77744 7.74151 6.72822 7.72314C6.679 7.70477 6.62641 7.69719 6.57401 7.70092C6.52161 7.70464 6.47062 7.71958 6.42449 7.74473C6.37837 7.76988 6.33819 7.80464 6.30667 7.84667L5.20667 9.31334C5.17778 9.35186 5.15676 9.39569 5.1448 9.44234C5.13285 9.48898 5.13021 9.53752 5.13702 9.58519C5.14383 9.63286 5.15996 9.67872 5.18449 9.72015C5.20903 9.76158 5.24148 9.79778 5.28 9.82667Z" fill="#686868"/>
<path d="M12.4667 12.8333C12.4667 12.7361 12.428 12.6428 12.3593 12.5741C12.2905 12.5053 12.1972 12.4667 12.1 12.4667H2.2C2.10275 12.4667 2.00949 12.5053 1.94073 12.5741C1.87196 12.6428 1.83333 12.7361 1.83333 12.8333C1.83333 12.9306 1.87196 13.0238 1.94073 13.0926C2.00949 13.1614 2.10275 13.2 2.2 13.2H12.1C12.1972 13.2 12.2905 13.1614 12.3593 13.0926C12.428 13.0238 12.4667 12.9306 12.4667 12.8333Z" fill="#686868"/>
<path d="M2.56667 15.0333C2.76917 15.0333 2.93333 14.8692 2.93333 14.6667C2.93333 14.4642 2.76917 14.3 2.56667 14.3C2.36416 14.3 2.2 14.4642 2.2 14.6667C2.2 14.8692 2.36416 15.0333 2.56667 15.0333Z" fill="#686868"/>
<path d="M9.16667 14.3H4.03333C3.93609 14.3 3.84282 14.3386 3.77406 14.4074C3.7053 14.4762 3.66667 14.5694 3.66667 14.6667C3.66667 14.7639 3.7053 14.8572 3.77406 14.9259C3.84282 14.9947 3.93609 15.0333 4.03333 15.0333H9.16667C9.26391 15.0333 9.35718 14.9947 9.42594 14.9259C9.4947 14.8572 9.53333 14.7639 9.53333 14.6667C9.53333 14.5694 9.4947 14.4762 9.42594 14.4074C9.35718 14.3386 9.26391 14.3 9.16667 14.3Z" fill="#686868"/>
<path d="M2.56667 16.5C2.76917 16.5 2.93333 16.3358 2.93333 16.1333C2.93333 15.9308 2.76917 15.7667 2.56667 15.7667C2.36416 15.7667 2.2 15.9308 2.2 16.1333C2.2 16.3358 2.36416 16.5 2.56667 16.5Z" fill="#686868"/>
<path d="M9.16667 15.7667H4.03333C3.93609 15.7667 3.84282 15.8053 3.77406 15.8741C3.7053 15.9428 3.66667 16.0361 3.66667 16.1333C3.66667 16.2306 3.7053 16.3238 3.77406 16.3926C3.84282 16.4614 3.93609 16.5 4.03333 16.5H9.16667C9.26391 16.5 9.35718 16.4614 9.42594 16.3926C9.4947 16.3238 9.53333 16.2306 9.53333 16.1333C9.53333 16.0361 9.4947 15.9428 9.42594 15.8741C9.35718 15.8053 9.26391 15.7667 9.16667 15.7667Z" fill="#686868"/>
<path d="M6.6 5.5C6.8025 5.5 6.96667 5.33584 6.96667 5.13333C6.96667 4.93083 6.8025 4.76667 6.6 4.76667C6.3975 4.76667 6.23333 4.93083 6.23333 5.13333C6.23333 5.33584 6.3975 5.5 6.6 5.5Z" fill="#686868"/>
<path d="M18.4277 18.3909C18.7327 18.0857 18.9405 17.697 19.0246 17.2738C19.1088 16.8506 19.0656 16.412 18.9004 16.0134C18.7353 15.6148 18.4557 15.2741 18.097 15.0344C17.7382 14.7946 17.3164 14.6667 16.885 14.6667H15.4V13.2C15.4 12.9083 15.2841 12.6285 15.0778 12.4222C14.8715 12.2159 14.5917 12.1 14.3 12.1C14.0082 12.1 13.7284 12.2159 13.5222 12.4222C13.3159 12.6285 13.2 12.9083 13.2 13.2V15.9879C12.9738 15.799 12.6834 15.7047 12.3894 15.7246C12.0954 15.7445 11.8204 15.8769 11.6216 16.0945C11.4228 16.312 11.3156 16.5978 11.3223 16.8924C11.329 17.187 11.449 17.4677 11.6574 17.676L13.2 19.2185V19.8H12.8333C12.7361 19.8 12.6428 19.8386 12.574 19.9074C12.5053 19.9762 12.4666 20.0694 12.4666 20.1667V21.6333C12.4666 21.7306 12.5053 21.8238 12.574 21.8926C12.6428 21.9614 12.7361 22 12.8333 22H17.9666C18.0639 22 18.1572 21.9614 18.2259 21.8926C18.2947 21.8238 18.3333 21.7306 18.3333 21.6333V20.1667C18.3333 20.0694 18.2947 19.9762 18.2259 19.9074C18.1572 19.8386 18.0639 19.8 17.9666 19.8H17.6V19.2185L18.4277 18.3909ZM16.974 18.8074C16.94 18.8414 16.913 18.8819 16.8945 18.9263C16.8761 18.9708 16.8666 19.0185 16.8666 19.0667V19.8H13.9333V19.0667C13.9333 19.0185 13.9238 18.9708 13.9054 18.9263C13.887 18.8819 13.86 18.8414 13.8259 18.8074L12.1759 17.1574C12.1377 17.1192 12.1075 17.0739 12.0868 17.024C12.0661 16.9741 12.0555 16.9206 12.0555 16.8666C12.0555 16.8126 12.0661 16.7592 12.0868 16.7093C12.1075 16.6594 12.1377 16.6141 12.1759 16.5759C12.2141 16.5377 12.2594 16.5074 12.3093 16.4868C12.3592 16.4661 12.4127 16.4555 12.4667 16.4555C12.5207 16.4555 12.5741 16.4661 12.624 16.4868C12.6739 16.5074 12.7192 16.5377 12.7574 16.5759L13.3074 17.1259C13.3587 17.1772 13.424 17.2121 13.4951 17.2262C13.5662 17.2404 13.64 17.2331 13.7069 17.2053C13.7739 17.1776 13.8312 17.1306 13.8715 17.0703C13.9118 17.0101 13.9333 16.9392 13.9333 16.8667V13.2C13.9333 13.1028 13.9719 13.0095 14.0407 12.9407C14.1095 12.872 14.2027 12.8333 14.3 12.8333C14.3972 12.8333 14.4905 12.872 14.5592 12.9407C14.628 13.0095 14.6666 13.1028 14.6666 13.2V15.0333C14.6666 15.1306 14.7053 15.2238 14.774 15.2926C14.8428 15.3614 14.9361 15.4 15.0333 15.4H16.885C17.1714 15.4001 17.4513 15.485 17.6895 15.6442C17.9276 15.8033 18.1132 16.0295 18.2228 16.2941C18.3324 16.5587 18.3611 16.8498 18.3052 17.1307C18.2494 17.4116 18.1115 17.6697 17.909 17.8722L16.974 18.8074Z" fill="#686868"/>
<path d="M10.6333 17.6H1.1C1.00279 17.5999 0.909588 17.5612 0.840848 17.4925C0.772108 17.4237 0.733442 17.3305 0.733333 17.2333V3.66667H16.1333V4.03333C16.1333 4.13058 16.172 4.22384 16.2407 4.29261C16.3095 4.36137 16.4028 4.4 16.5 4.4C16.5972 4.4 16.6905 4.36137 16.7593 4.29261C16.828 4.22384 16.8667 4.13058 16.8667 4.03333V1.1C16.8663 0.808362 16.7503 0.528763 16.5441 0.322544C16.3379 0.116325 16.0583 0.00032754 15.7667 0H1.1C0.808362 0.00032754 0.528763 0.116325 0.322544 0.322544C0.116325 0.528763 0.00032754 0.808362 0 1.1V17.2333C0.00032754 17.525 0.116325 17.8046 0.322544 18.0108C0.528763 18.217 0.808362 18.333 1.1 18.3333H10.6333C10.7306 18.3333 10.8238 18.2947 10.8926 18.2259C10.9614 18.1572 11 18.0639 11 17.9667C11 17.8694 10.9614 17.7762 10.8926 17.7074C10.8238 17.6386 10.7306 17.6 10.6333 17.6ZM4.76667 1.46667C4.83919 1.46667 4.91008 1.48817 4.97038 1.52846C5.03067 1.56875 5.07767 1.62602 5.10542 1.69302C5.13317 1.76002 5.14044 1.83374 5.12629 1.90487C5.11214 1.97599 5.07722 2.04133 5.02594 2.09261C4.97466 2.14389 4.90933 2.17881 4.8382 2.19295C4.76707 2.2071 4.69335 2.19984 4.62635 2.17209C4.55935 2.14434 4.50208 2.09734 4.46179 2.03704C4.4215 1.97674 4.4 1.90585 4.4 1.83333C4.4 1.73609 4.43863 1.64282 4.50739 1.57406C4.57616 1.5053 4.66942 1.46667 4.76667 1.46667ZM3.3 1.46667C3.37252 1.46667 3.44341 1.48817 3.50371 1.52846C3.56401 1.56875 3.611 1.62602 3.63876 1.69302C3.66651 1.76002 3.67377 1.83374 3.65962 1.90487C3.64547 1.97599 3.61055 2.04133 3.55927 2.09261C3.50799 2.14389 3.44266 2.17881 3.37153 2.19295C3.30041 2.2071 3.22668 2.19984 3.15968 2.17209C3.09268 2.14434 3.03542 2.09734 2.99513 2.03704C2.95484 1.97674 2.93333 1.90585 2.93333 1.83333C2.93333 1.73609 2.97196 1.64282 3.04073 1.57406C3.10949 1.5053 3.20275 1.46667 3.3 1.46667ZM1.83333 1.46667C1.90585 1.46667 1.97674 1.48817 2.03704 1.52846C2.09734 1.56875 2.14434 1.62602 2.17209 1.69302C2.19984 1.76002 2.2071 1.83374 2.19295 1.90487C2.17881 1.97599 2.14388 2.04133 2.09261 2.09261C2.04133 2.14389 1.97599 2.17881 1.90487 2.19295C1.83374 2.2071 1.76002 2.19984 1.69302 2.17209C1.62602 2.14434 1.56875 2.09734 1.52846 2.03704C1.48817 1.97674 1.46667 1.90585 1.46667 1.83333C1.46667 1.73609 1.5053 1.64282 1.57406 1.57406C1.64282 1.5053 1.73609 1.46667 1.83333 1.46667Z" fill="#686868"/>
<path d="M16.5 5.13333C16.4028 5.13333 16.3095 5.17196 16.2407 5.24073C16.172 5.30949 16.1333 5.40275 16.1333 5.5V13.5667C16.1333 13.6639 16.172 13.7572 16.2407 13.8259C16.3095 13.8947 16.4028 13.9333 16.5 13.9333C16.5972 13.9333 16.6905 13.8947 16.7593 13.8259C16.828 13.7572 16.8667 13.6639 16.8667 13.5667V5.5C16.8667 5.40275 16.828 5.30949 16.7593 5.24073C16.6905 5.17196 16.5972 5.13333 16.5 5.13333Z" fill="#686868"/>
</svg>
