<svg width="291" height="259" viewBox="0 0 291 259" fill="none" xmlns="http://www.w3.org/2000/svg">
<path d="M247.401 208.414H230.384V208.517H247.401V208.414Z" fill="#EBEBEB"/>
<path d="M186.374 209.855H181.901V209.958H186.374V209.855Z" fill="#EBEBEB"/>
<path d="M229.869 203.68H219.998V203.783H229.869V203.68Z" fill="#EBEBEB"/>
<path d="M65.2951 204.503H43.0845V204.606H65.2951V204.503Z" fill="#EBEBEB"/>
<path d="M73.1099 204.503H69.8708V204.606H73.1099V204.503Z" fill="#EBEBEB"/>
<path d="M131.875 206.716H83.701V206.819H131.875V206.716Z" fill="#EBEBEB"/>
<path d="M138.662 177.229H39.3827C37.7889 177.229 36.4521 175.891 36.4521 174.296V34.5813C36.4521 32.986 37.7889 31.6481 39.3827 31.6481H138.662C140.256 31.6481 141.593 32.986 141.593 34.5813V174.245C141.593 175.891 140.307 177.229 138.662 177.229ZM39.3827 31.8025C37.8403 31.8025 36.555 33.0375 36.555 34.6328V174.296C36.555 175.84 37.7889 177.127 39.3827 177.127H138.662C140.204 177.127 141.49 175.891 141.49 174.296V34.5813C141.49 33.0375 140.256 31.751 138.662 31.751H39.3827V31.8025Z" fill="#EBEBEB"/>
<path d="M249.869 177.229H150.59C148.996 177.229 147.659 175.891 147.659 174.296V34.5813C147.659 32.986 148.996 31.6481 150.59 31.6481H249.869C251.463 31.6481 252.8 32.986 252.8 34.5813V174.245C252.8 175.891 251.515 177.229 249.869 177.229ZM150.59 31.8025C149.048 31.8025 147.762 33.0375 147.762 34.6328V174.296C147.762 175.84 148.996 177.127 150.59 177.127H249.869C251.412 177.127 252.697 175.891 252.697 174.296V34.5813C252.697 33.0375 251.463 31.751 249.869 31.751H150.59V31.8025Z" fill="#EBEBEB"/>
<path d="M273.16 200.181H16.0924V200.284H273.16V200.181Z" fill="#EBEBEB"/>
<path d="M196.092 209.743H245.037V144.594H196.092V209.743Z" fill="#F5F5F5"/>
<path d="M186.769 209.743H196.126V144.594H186.769V209.743Z" fill="#E6E6E6"/>
<path d="M199.336 165.232H241.649V149.383H199.336V165.232Z" fill="#FAFAFA"/>
<path d="M225.962 149.389L225.756 151.499C225.705 152.22 225.088 152.734 224.42 152.734H216.451C215.731 152.734 215.165 152.22 215.114 151.499L214.908 149.389H225.962Z" fill="#EBEBEB"/>
<path d="M199.336 182.795H241.649V166.946H199.336V182.795Z" fill="#FAFAFA"/>
<path d="M225.962 166.937L225.756 169.047C225.705 169.768 225.088 170.282 224.42 170.282H216.451C215.731 170.282 215.165 169.768 215.114 169.047L214.908 166.937H225.962Z" fill="#EBEBEB"/>
<path d="M199.336 200.358H241.649V184.509H199.336V200.358Z" fill="#FAFAFA"/>
<path d="M225.962 184.485L225.756 186.595C225.705 187.316 225.088 187.83 224.42 187.83H216.451C215.731 187.83 215.165 187.316 215.114 186.595L214.908 184.485H225.962Z" fill="#EBEBEB"/>
<path d="M199.279 212.994H241.129L241.643 209.752H199.279V212.994Z" fill="#E6E6E6"/>
<path d="M190.538 212.994H199.278V209.752H190.024L190.538 212.994Z" fill="#E0E0E0"/>
<path d="M218.97 144.655H235.679L233.828 123.402H217.119L218.97 144.655Z" fill="#FAFAFA"/>
<path d="M218.97 144.655H218.147L216.296 123.402H217.119L218.97 144.655Z" fill="#EBEBEB"/>
<path d="M220.461 142.494H233.777L232.286 125.563H218.97L220.461 142.494Z" fill="#F0F0F0"/>
<path d="M221.438 141.104H232.543L231.309 126.953H220.204L221.438 141.104Z" fill="#E6E6E6"/>
<path d="M214.24 144.655L215.422 131.481H198.764L197.633 144.655H214.24Z" fill="#F0F0F0"/>
<path d="M214.24 144.655L215.422 131.481H216.296L215.165 144.655H214.24Z" fill="#E0E0E0"/>
<path d="M212.697 143.317L213.571 132.819H200.358L199.433 143.317H212.697Z" fill="#EBEBEB"/>
<path d="M211.669 142.442L212.44 133.694H201.386L200.615 142.442H211.669Z" fill="#F5F5F5"/>
<path d="M175.834 204.143C175.834 207.642 175.268 209.855 174.394 211.296C173.726 212.377 172.441 212.994 171.155 212.994H166.117C164.832 212.994 163.598 212.377 162.878 211.296C161.952 209.855 161.438 207.591 161.438 204.143C161.438 199.1 163.649 195.035 164.369 191.844C164.626 190.66 163.752 187.11 163.752 187.11H173.52C173.52 187.11 172.646 190.66 172.903 191.844C173.675 195.086 175.834 199.1 175.834 204.143Z" fill="#EBEBEB"/>
<path d="M192.492 183.765C192.492 179.391 185.654 181.192 183.906 174.399C183.238 171.826 188.842 166.011 188.842 166.011H171.464C171.464 166.011 177.068 171.826 176.4 174.399C174.651 181.192 167.813 179.391 167.813 183.765C167.813 188.602 177.479 198.637 177.942 209.958C177.993 210.987 176.142 213.046 176.142 213.046H184.214C184.214 213.046 182.363 210.936 182.415 209.958C182.826 198.637 192.492 188.551 192.492 183.765Z" fill="#F5F5F5"/>
<path d="M187.248 195.138C188.276 193.028 186.168 185.772 186.168 185.772H193.726C193.726 185.772 191.618 193.028 192.646 195.138C193.366 196.63 194.96 197.608 194.96 199.357V210.061C194.96 212.84 192.698 213.046 189.921 213.046C187.145 213.046 184.883 212.84 184.883 210.061V199.357C184.883 197.608 186.528 196.63 187.248 195.138Z" fill="#F0F0F0"/>
<path d="M101.027 131.996C96.7087 130.143 94.2408 126.181 95.5262 123.145C96.8115 120.16 101.387 119.234 105.757 121.138C110.076 122.99 112.544 127.004 111.259 129.989C109.973 132.974 105.398 133.848 101.027 131.996ZM104.472 124.019C102.467 123.145 100.308 123.556 99.6906 124.946C99.0737 126.335 100.256 128.188 102.261 129.063C104.266 129.937 106.426 129.526 107.043 128.136C107.711 126.747 106.529 124.894 104.472 124.019Z" fill="#E6E6E6"/>
<path d="M106.169 124.174L104.112 123.299L116.554 94.5326C116.811 93.9665 117.48 93.7092 118.045 93.9666C118.611 94.2239 118.868 94.8928 118.611 95.4589L106.169 124.174Z" fill="#E6E6E6"/>
<path d="M119.536 98.1862L115.577 96.4366L116.503 94.3782L120.41 96.1278L119.536 98.1862Z" fill="#E6E6E6"/>
<path d="M117.582 100.502L114.755 99.2669L115.68 97.2085L118.508 98.4435L117.582 100.502Z" fill="#E6E6E6"/>
<path d="M114.526 101.097L113.627 103.174L116.788 104.545L117.687 102.467L114.526 101.097Z" fill="#E6E6E6"/>
<path d="M106.94 121.138L105.809 120.623C105.243 120.366 104.986 119.748 105.243 119.182C105.5 118.616 106.117 118.359 106.683 118.616L107.814 119.131C108.38 119.388 108.637 120.005 108.38 120.571C108.174 121.086 107.506 121.343 106.94 121.138Z" fill="#E6E6E6"/>
<path d="M195.32 111.206C198.764 113.47 199.638 118.204 197.273 121.755C194.908 125.254 190.23 126.284 186.785 123.968C183.34 121.704 182.466 116.969 184.831 113.419C187.145 109.919 191.875 108.941 195.32 111.206ZM189.047 120.623C190.641 121.704 192.852 121.24 193.931 119.594C195.011 117.947 194.6 115.734 193.006 114.654C191.412 113.573 189.201 114.036 188.122 115.683C187.042 117.33 187.453 119.542 189.047 120.623Z" fill="#E6E6E6"/>
<path d="M188.225 119.697L190.332 121.138L175.114 144.449C174.703 145.015 173.932 145.221 173.366 144.809C172.8 144.398 172.595 143.626 173.006 143.06L188.225 119.697Z" fill="#E6E6E6"/>
<path d="M173.109 137.914L177.582 140.898L175.371 144.243L170.898 141.207C170.23 140.795 170.076 139.921 170.487 139.252L171.155 138.222C171.567 137.656 172.441 137.502 173.109 137.914Z" fill="#E6E6E6"/>
<path d="M133.109 66.6411L130.744 72.7648C130.539 73.3309 129.922 73.5882 129.356 73.3824C128.791 73.1765 128.534 72.559 128.739 71.9929L131.104 65.8692C131.875 63.9137 130.899 61.6494 128.893 60.8775L126.683 60.0541C124.729 59.2822 122.467 60.26 121.696 62.2669L120.719 64.7885L118.714 64.0166L119.69 61.495C120.873 58.4074 124.369 56.8636 127.454 58.0472L129.665 58.8706C132.749 60.1056 134.292 63.5534 133.109 66.6411Z" fill="#F0F0F0"/>
<path d="M132.75 67.6188C132.595 67.413 132.39 67.2586 132.133 67.1557L120.205 62.5242C119.948 62.4213 119.639 62.4213 119.382 62.4728C118.919 62.5757 118.508 62.8844 118.302 63.3991L113.675 75.3379C113.367 76.1098 113.778 76.9331 114.498 77.2419L126.426 81.8733C127.197 82.1821 128.02 81.7704 128.328 81.05L132.955 69.1112C133.161 68.5451 133.058 68.0305 132.75 67.6188ZM123.701 76.8302L119.896 75.3893L121.901 71.89C121.644 71.3754 121.593 70.7579 121.798 70.1918C122.21 69.1111 123.444 68.5451 124.523 69.0082C125.603 69.4199 126.169 70.655 125.706 71.7356C125.5 72.3017 125.038 72.7134 124.523 72.9192L123.701 76.8302Z" fill="#E6E6E6"/>
<path d="M51.7332 206.059H146.899V154.804H51.7332V206.059Z" fill="#E6E6E6"/>
<path d="M139.28 212.695H145.244V208.167H139.28V212.695Z" fill="#E6E6E6"/>
<path d="M44.4539 212.705H50.4178L50.4178 150.953H44.4539L44.4539 212.705Z" fill="#E6E6E6"/>
<path d="M50.3337 150.985V212.737H53.5214V209.289H145.243V212.737H148.431V150.985H146.837H145.243H53.5214H51.9276H50.3337ZM53.5214 156.542H97.7883V178.001H53.5214V156.542ZM145.243 203.68H100.976V156.594H145.243V203.68ZM53.5214 203.68V181.192H97.7883V203.68H53.5214Z" fill="#F0F0F0"/>
<path d="M100.949 203.679H142.234V158.908H100.949V203.679Z" fill="#F5F5F5"/>
<path d="M102.827 179.905C102.827 180.986 103.701 181.809 104.729 181.809C105.809 181.809 106.631 180.935 106.631 179.905C106.631 178.876 105.757 178.001 104.729 178.001C103.701 178.001 102.827 178.876 102.827 179.905Z" fill="#FAFAFA"/>
<path d="M104.78 181.861C105.552 181.861 106.22 181.398 106.529 180.729C106.631 180.986 106.683 181.243 106.683 181.552C106.683 182.633 105.809 183.456 104.78 183.456C103.701 183.456 102.878 182.581 102.878 181.552C102.878 181.243 102.93 180.986 103.032 180.729C103.341 181.398 104.009 181.861 104.78 181.861Z" fill="#E0E0E0"/>
<path d="M126.22 203.68H116.4L111.67 158.858H121.541L126.22 203.68Z" fill="#FAFAFA"/>
<path d="M113.881 203.68H111.927L107.197 158.858H109.151L113.881 203.68Z" fill="#FAFAFA"/>
<path d="M87.7974 178.006H91.7048V158.863H87.7974V178.006Z" fill="#FAFAFA"/>
<path d="M71.657 178.006H75.5645V158.863H71.657V178.006Z" fill="#F5F5F5"/>
<path d="M83.9061 177.963H87.8135V160.158H83.9061V177.963Z" fill="#F5F5F5"/>
<path d="M75.5484 177.963H79.4558V160.158H75.5484V177.963Z" fill="#FAFAFA"/>
<path d="M79.4485 178.006H81.9678V158.863H79.4485V178.006Z" fill="#EBEBEB"/>
<path d="M81.9643 177.963H83.918V160.158H81.9643V177.963Z" fill="#FAFAFA"/>
<path d="M67.7142 178.006H71.6216V158.863H67.7142V178.006Z" fill="#EBEBEB"/>
<path d="M63.8228 177.963H67.7302V160.158H63.8228V177.963Z" fill="#E6E6E6"/>
<path d="M55.4653 177.963H59.3727V160.158H55.4653V177.963Z" fill="#E6E6E6"/>
<path d="M59.3653 178.006H61.8845V158.863H59.3653V178.006Z" fill="#FAFAFA"/>
<path d="M61.8811 177.963H63.8348V160.158H61.8811V177.963Z" fill="#EBEBEB"/>
<path d="M53.5236 177.997H55.4773V159.265H53.5236V177.997Z" fill="#EBEBEB"/>
<path d="M57.4288 184.485H53.5214V203.629H57.4288V184.485Z" fill="#EBEBEB"/>
<path d="M73.624 184.485H69.7166V203.629H73.624V184.485Z" fill="#FAFAFA"/>
<path d="M61.3361 185.875H57.4287V203.68H61.3361V185.875Z" fill="#FAFAFA"/>
<path d="M69.7166 185.875H65.8092V203.68H69.7166V185.875Z" fill="#EBEBEB"/>
<path d="M65.8092 184.485H63.2899V203.629H65.8092V184.485Z" fill="#FAFAFA"/>
<path d="M63.2899 185.875H61.3362V203.68H63.2899V185.875Z" fill="#F5F5F5"/>
<path d="M77.48 184.485H73.5726V203.629H77.48V184.485Z" fill="#EBEBEB"/>
<path d="M81.3874 185.875H77.48V203.68H81.3874V185.875Z" fill="#F5F5F5"/>
<path d="M89.7678 185.875H85.8604V203.68H89.7678V185.875Z" fill="#E6E6E6"/>
<path d="M85.8603 184.485H83.3411V203.629H85.8603V184.485Z" fill="#FAFAFA"/>
<path d="M94.2408 184.485H91.7216V203.629H94.2408V184.485Z" fill="#FAFAFA"/>
<path d="M83.3412 185.875H81.3875V203.68H83.3412V185.875Z" fill="#EBEBEB"/>
<path d="M91.7215 184.948H89.7678V203.68H91.7215V184.948Z" fill="#EBEBEB"/>
<path d="M57.8914 117.999C57.8914 117.999 57.223 118.307 56.9145 118.925C56.606 119.542 57.5315 120.674 57.5315 120.674C57.5315 120.674 58.3027 121.241 59.0739 120.88C59.8451 120.52 59.8451 120.52 59.8451 120.52C59.8451 120.52 58.5083 118.204 57.8914 118.204V117.999Z" fill="#E6E6E6"/>
<path d="M61.1818 117.947C61.2847 119.028 60.6163 120.417 59.6394 120.52C58.6626 120.623 57.7886 119.388 57.6857 118.256C57.5829 117.175 58.3541 117.072 59.331 116.969C60.3078 116.918 61.079 116.866 61.1818 117.947Z" fill="#E6E6E6"/>
<path d="M58.3541 117.638C58.3541 117.638 59.0739 118.256 60.6163 117.896C60.6163 117.896 58.1999 119.491 58.3541 117.638Z" fill="#E6E6E6"/>
<path d="M58.9711 117.433C58.9711 117.433 59.8451 117.278 59.8451 117.638C59.8451 117.638 60.5649 117.587 60.4621 117.278C60.4106 116.969 58.9711 117.433 58.9711 117.433Z" fill="#E6E6E6"/>
<g opacity="0.2">
<path d="M58.3541 117.638C58.3541 117.638 59.0739 118.256 60.6163 117.896C60.6163 117.896 58.1999 119.491 58.3541 117.638Z" fill="#FAFAFA"/>
</g>
<g opacity="0.2">
<path d="M58.9711 117.433C58.9711 117.433 59.8451 117.278 59.8451 117.638C59.8451 117.638 60.5649 117.587 60.4621 117.278C60.4106 116.969 58.9711 117.433 58.9711 117.433Z" fill="#FAFAFA"/>
</g>
<path d="M57.9943 120.88C58.3027 121.395 58.9197 121.652 59.5367 121.549C60.1022 121.498 60.6678 121.138 60.9762 120.623C61.3361 120.16 61.4904 119.542 61.4904 118.976C61.4904 118.822 61.4904 118.462 61.3361 118.359C61.1305 118.307 61.0277 118.565 60.9762 118.668C60.7192 119.028 60.4621 119.337 60.1536 119.645C59.8451 119.903 59.5367 120.16 59.1768 120.366C59.0225 120.417 58.0457 120.932 57.9943 120.88Z" fill="#E6E6E6"/>
<path d="M62.1587 118.668C62.3643 119.131 62.2615 119.645 62.0044 120.005C61.7988 120.263 61.5417 120.417 61.2846 120.623C61.079 120.726 60.8733 120.829 60.6677 120.726C60.462 120.623 60.462 120.314 60.5134 120.057C60.5648 119.697 60.6677 119.336 60.7705 118.976C60.8219 118.668 60.8733 118.204 61.079 117.947C61.2332 117.741 61.4389 117.844 61.6959 117.999C61.9016 118.204 62.0558 118.41 62.1587 118.668Z" fill="#E6E6E6"/>
<g opacity="0.2">
<path d="M58.2513 120.263C57.8914 120.263 57.5315 120.005 57.3773 119.645C57.2744 119.388 57.2744 118.719 57.6343 118.667C57.7886 119.234 57.8914 119.748 58.2513 120.263Z" fill="#FAFAFA"/>
</g>
<g opacity="0.2">
<path d="M60.7705 120.211C61.1304 120.108 61.4389 119.8 61.5417 119.491C61.5931 119.285 61.5417 118.307 61.2332 118.719C61.1304 118.873 61.1304 119.285 61.079 119.491C61.0276 119.748 60.9247 120.006 60.7705 120.211Z" fill="#FAFAFA"/>
</g>
<g opacity="0.2">
<path d="M59.4338 120.829C59.6909 121.086 60.1536 121.086 60.4107 120.88C60.3592 121.086 59.7423 121.241 59.588 121.292C59.0739 121.446 58.8168 121.241 58.3541 121.035C58.3541 120.983 59.1253 121.138 59.4338 120.829Z" fill="#FAFAFA"/>
</g>
<path d="M58.5598 140.898L58.6112 126.026L59.3824 121.498L59.6909 121.549L58.9197 126.078L58.8683 141.156L58.5598 140.898Z" fill="#E0E0E0"/>
<path d="M58.8683 125.975L58.6112 126.129C58.3542 125.821 58.1485 125.409 57.9429 124.946C57.583 124.225 57.1203 123.453 56.5033 122.733L56.709 122.527C57.3773 123.248 57.84 124.071 58.1999 124.791C58.457 125.306 58.6627 125.666 58.8683 125.975Z" fill="#E0E0E0"/>
<path d="M59.074 123.968C59.4853 123.865 59.8452 123.608 60.0508 123.299C60.3079 122.939 60.4107 122.424 60.4621 122.012C59.948 122.167 59.3825 121.91 58.8683 121.961C58.457 122.012 58.0457 122.27 57.8401 122.63C57.583 123.093 57.4288 123.659 57.6858 123.865C57.8915 124.019 58.5599 124.122 59.074 123.968Z" fill="#E6E6E6"/>
<path d="M57.1202 122.939C56.6575 123.247 56.0405 123.299 55.5264 123.145C55.0122 122.99 54.858 122.167 54.6523 121.652C55.1151 121.549 56.349 121.601 56.6575 121.652C56.9145 121.704 57.223 121.807 57.3773 122.064C57.5315 122.321 57.4801 122.63 57.2744 122.836C57.1716 122.784 57.1202 122.939 57.1202 122.939Z" fill="#E6E6E6"/>
<path d="M54.6524 123.814C54.9609 123.402 55.7835 123.145 56.2976 123.248C56.8118 123.35 57.2231 123.711 57.4287 124.122C57.2745 124.431 56.9146 124.637 56.6061 124.637C56.2462 124.637 55.9377 124.534 55.5778 124.483C55.2693 124.38 54.9095 124.277 54.5496 124.328L54.6524 123.814Z" fill="#E6E6E6"/>
<path d="M64.5752 121.24C64.5752 121.24 65.0893 121.704 65.2436 122.373C65.3464 123.042 64.1125 123.865 64.1125 123.865C64.1125 123.865 63.187 124.174 62.5701 123.608C61.9531 123.042 61.9531 123.042 61.9531 123.042C61.9531 123.042 63.9068 121.24 64.5238 121.395L64.5752 121.24Z" fill="#E6E6E6"/>
<path d="M61.3876 120.263C60.9763 121.292 61.2334 122.784 62.1074 123.145C63.0329 123.505 64.2154 122.578 64.6267 121.601C65.038 120.572 64.3182 120.263 63.3928 119.903C62.5702 119.491 61.799 119.234 61.3876 120.263Z" fill="#E6E6E6"/>
<path d="M64.2154 120.777C64.2154 120.777 63.3414 121.138 61.9532 120.366C61.9532 120.366 63.8041 122.63 64.2154 120.777Z" fill="#E6E6E6"/>
<path d="M63.6498 120.417C63.6498 120.417 62.8786 120.005 62.7758 120.366C62.7758 120.366 62.1074 120.108 62.2616 119.851C62.4673 119.542 63.6498 120.417 63.6498 120.417Z" fill="#E6E6E6"/>
<g opacity="0.2">
<path d="M64.2154 120.777C64.2154 120.777 63.3414 121.138 61.9532 120.366C61.9532 120.366 63.8041 122.63 64.2154 120.777Z" fill="#FAFAFA"/>
</g>
<g opacity="0.2">
<path d="M63.6498 120.417C63.6498 120.417 62.8786 120.005 62.7758 120.366C62.7758 120.366 62.1074 120.108 62.2616 119.851C62.4673 119.542 63.6498 120.417 63.6498 120.417Z" fill="#FAFAFA"/>
</g>
<path d="M63.5984 123.968C63.1356 124.38 62.4673 124.431 61.9531 124.174C61.439 123.917 61.0277 123.453 60.822 122.887C60.6164 122.321 60.6678 121.704 60.822 121.138C60.8735 120.983 60.9763 120.623 61.1819 120.623C61.3876 120.623 61.3876 120.88 61.439 121.035C61.5932 121.446 61.7475 121.807 61.9531 122.167C62.1588 122.527 62.4159 122.836 62.6729 123.145C62.7243 123.248 63.4955 124.019 63.5984 123.968Z" fill="#E6E6E6"/>
<path d="M60.2565 120.674C59.948 121.035 59.8452 121.601 59.9995 122.012C60.1023 122.321 60.3079 122.578 60.5136 122.784C60.6678 122.939 60.8735 123.145 61.0791 123.042C61.2848 122.99 61.3876 122.681 61.3876 122.476C61.439 122.115 61.439 121.755 61.4904 121.395C61.4904 121.086 61.5933 120.623 61.4904 120.314C61.3876 120.057 61.1305 120.108 60.8735 120.211C60.6164 120.314 60.4108 120.469 60.2565 120.674Z" fill="#E6E6E6"/>
<g opacity="0.2">
<path d="M63.547 123.299C63.9069 123.402 64.3182 123.248 64.5753 122.939C64.7295 122.733 64.9352 122.115 64.6267 121.91C64.3182 122.476 64.0097 122.939 63.547 123.299Z" fill="#FAFAFA"/>
</g>
<g opacity="0.2">
<path d="M61.1306 122.527C60.8221 122.321 60.6165 121.961 60.6165 121.601C60.6165 121.395 60.9763 120.469 61.1306 120.932C61.182 121.086 61.0278 121.498 61.0278 121.704C61.0278 122.012 61.0792 122.27 61.1306 122.527Z" fill="#FAFAFA"/>
</g>
<g opacity="0.2">
<path d="M62.2103 123.556C61.9018 123.711 61.4391 123.556 61.2334 123.299C61.2334 123.505 61.7475 123.814 61.9018 123.916C62.3131 124.174 62.6216 124.071 63.1357 124.019C63.1871 124.019 62.4159 123.916 62.2103 123.556Z" fill="#FAFAFA"/>
</g>
<path d="M58.1486 138.686L58.3542 138.068L58.6113 137.245L58.8683 136.267L61.182 128.702L61.4904 126.489L61.7475 124.585L61.7989 124.174H61.9017H61.9532L62.056 124.225L62.0046 124.637L61.7475 126.695L61.5418 128.393L61.4904 128.754L61.439 128.805L58.8683 137.296L58.6113 138.222L58.457 138.686L58.2514 139.303L58.1486 138.686Z" fill="#E0E0E0"/>
<path d="M61.2334 128.599L61.3876 128.857C61.6961 128.651 62.0046 128.342 62.3645 127.93C62.93 127.364 63.5984 126.695 64.421 126.232L64.2668 125.975C63.3928 126.489 62.7758 127.158 62.1588 127.725C61.8504 128.085 61.5419 128.393 61.2334 128.599Z" fill="#E0E0E0"/>
<path d="M61.6446 126.644C61.2847 126.438 61.0277 126.078 60.9248 125.718C60.7706 125.254 60.822 124.791 60.8734 124.328C61.3362 124.637 61.9017 124.534 62.4158 124.74C62.8271 124.894 63.0842 125.254 63.187 125.666C63.2899 126.181 63.2385 126.747 62.9814 126.901C62.7757 127.004 62.1074 126.901 61.6446 126.644Z" fill="#E6E6E6"/>
<path d="M63.8555 126.232C64.2154 126.644 64.7809 126.901 65.3465 126.901C65.912 126.901 66.2719 126.181 66.6318 125.718C66.2205 125.46 64.9866 125.203 64.7295 125.151C64.4725 125.1 64.164 125.152 63.9583 125.306C63.7527 125.512 63.6499 125.82 63.8555 126.078C63.8041 126.078 63.8555 126.232 63.8555 126.232Z" fill="#E6E6E6"/>
<path d="M65.912 127.776C65.7064 127.313 65.038 126.798 64.5239 126.747C64.0097 126.695 63.4956 126.901 63.1871 127.21C63.2385 127.57 63.4956 127.827 63.8041 127.982C64.1126 128.085 64.4725 128.085 64.8324 128.085C65.1923 128.085 65.5522 128.085 65.8606 128.188L65.912 127.776Z" fill="#E6E6E6"/>
<path d="M54.1382 120.675C54.1382 120.675 53.5727 121.086 53.367 121.755C53.1614 122.424 54.2925 123.35 54.2925 123.35C54.2925 123.35 55.1665 123.762 55.8349 123.248C56.5547 122.784 56.5547 122.784 56.5547 122.784C56.5547 122.784 54.858 120.777 54.1896 120.829L54.1382 120.675Z" fill="#E6E6E6"/>
<path d="M57.3773 120.057C57.6858 121.138 57.2231 122.579 56.2976 122.836C55.3722 123.093 54.2411 122.013 53.9326 120.983C53.6241 119.903 54.3953 119.697 55.3208 119.439C56.349 119.182 57.1202 118.976 57.3773 120.057Z" fill="#E6E6E6"/>
<path d="M54.5496 120.263C54.5496 120.263 55.3722 120.726 56.8118 120.108C56.8118 120.057 54.7552 122.115 54.5496 120.263Z" fill="#E6E6E6"/>
<path d="M55.1665 119.903C55.1665 119.903 55.9891 119.594 56.0405 119.954C56.0405 119.954 56.7603 119.8 56.6061 119.491C56.4518 119.234 55.1665 119.903 55.1665 119.903Z" fill="#E6E6E6"/>
<g opacity="0.2">
<path d="M54.5496 120.263C54.5496 120.263 55.3722 120.726 56.8118 120.108C56.8118 120.057 54.7552 122.115 54.5496 120.263Z" fill="#FAFAFA"/>
</g>
<g opacity="0.2">
<path d="M55.1665 119.903C55.1665 119.903 55.9891 119.594 56.0405 119.954C56.0405 119.954 56.7603 119.8 56.6061 119.491C56.4518 119.234 55.1665 119.903 55.1665 119.903Z" fill="#FAFAFA"/>
</g>
<path d="M54.8066 123.453C55.2179 123.916 55.8863 124.019 56.4519 123.865C57.0174 123.711 57.4801 123.248 57.7372 122.681C57.9943 122.167 58.0457 121.549 57.9429 120.932C57.9429 120.777 57.8914 120.417 57.6858 120.366C57.4801 120.366 57.4287 120.623 57.3773 120.777C57.2231 121.138 57.0174 121.549 56.7604 121.858C56.5033 122.167 56.2462 122.476 55.8863 122.733C55.7321 122.887 54.8581 123.556 54.8066 123.453Z" fill="#E6E6E6"/>
<path d="M58.5084 120.572C58.7655 120.983 58.8169 121.498 58.6112 121.961C58.457 122.218 58.2513 122.476 57.9942 122.681C57.84 122.836 57.6344 122.99 57.4287 122.887C57.223 122.784 57.1716 122.527 57.1716 122.27C57.1716 121.91 57.1716 121.549 57.223 121.189C57.223 120.88 57.223 120.417 57.3259 120.16C57.4287 119.903 57.6858 120.006 57.9428 120.108C58.1485 120.211 58.3541 120.366 58.5084 120.572Z" fill="#E6E6E6"/>
<g opacity="0.2">
<path d="M54.9094 122.836C54.5495 122.887 54.1382 122.681 53.9325 122.373C53.7783 122.115 53.6755 121.498 53.9839 121.344C54.241 121.91 54.4981 122.424 54.9094 122.836Z" fill="#FAFAFA"/>
</g>
<g opacity="0.2">
<path d="M57.4287 122.373C57.7372 122.218 57.9943 121.858 58.0457 121.498C58.0457 121.292 57.84 120.314 57.583 120.777C57.5315 120.932 57.583 121.343 57.583 121.549C57.583 121.807 57.4801 122.115 57.4287 122.373Z" fill="#FAFAFA"/>
</g>
<g opacity="0.2">
<path d="M56.1948 123.196C56.5032 123.402 56.9145 123.299 57.1716 123.042C57.1716 123.248 56.6061 123.505 56.4518 123.608C55.9891 123.814 55.6806 123.659 55.2179 123.556C55.1665 123.556 55.9377 123.556 56.1948 123.196Z" fill="#FAFAFA"/>
</g>
<path d="M58.9711 143.06L56.349 128.445L56.2462 123.865H56.5547L56.6061 128.445L59.2796 143.317L58.9711 143.06Z" fill="#E0E0E0"/>
<path d="M56.5547 128.342L56.349 128.548C56.0406 128.291 55.7835 127.93 55.475 127.519C54.9609 126.901 54.3953 126.181 53.6755 125.615L53.8298 125.357C54.601 125.975 55.2179 126.695 55.6807 127.313C56.0406 127.776 56.2976 128.085 56.5547 128.342Z" fill="#E0E0E0"/>
<path d="M56.4004 126.335C56.7603 126.181 57.0688 125.872 57.223 125.46C57.4287 125.049 57.4287 124.534 57.4287 124.071C56.966 124.328 56.349 124.174 55.8349 124.328C55.4236 124.431 55.0637 124.791 54.9608 125.203C54.7552 125.718 54.7552 126.284 55.0637 126.438C55.2693 126.592 55.8863 126.592 56.4004 126.335Z" fill="#E6E6E6"/>
<path d="M54.2925 125.718C53.8812 126.078 53.3157 126.284 52.7501 126.232C52.1846 126.181 51.8761 125.409 51.619 124.946C52.0817 124.74 53.3157 124.586 53.5727 124.586C53.8298 124.586 54.1383 124.637 54.3439 124.843C54.5496 125.049 54.5496 125.409 54.3953 125.615C54.2925 125.512 54.2925 125.718 54.2925 125.718Z" fill="#E6E6E6"/>
<path d="M52.0303 127.004C52.2874 126.541 53.0072 126.129 53.5213 126.129C54.0354 126.129 54.4981 126.387 54.7552 126.747C54.7038 127.107 54.3439 127.313 54.0354 127.416C53.6755 127.519 53.367 127.467 53.0072 127.416C52.6473 127.364 52.2874 127.313 51.9789 127.416L52.0303 127.004Z" fill="#E6E6E6"/>
<path d="M59.9994 134.106H56.9146C56.709 134.106 56.5033 134.26 56.4005 134.466C56.1434 135.289 55.6293 137.348 55.6293 140.693C55.6293 144.346 56.5547 149.132 56.8632 150.573C56.9146 150.83 57.1203 150.985 57.3773 150.985H59.5367C59.7938 150.985 59.9994 150.83 60.0508 150.573C60.3593 149.132 61.2847 144.346 61.2847 140.693C61.2847 137.399 60.7706 135.289 60.5135 134.466C60.4107 134.26 60.2565 134.106 59.9994 134.106Z" fill="#F0F0F0"/>
<path d="M144.626 223.081C199.684 223.081 244.317 220.477 244.317 217.266C244.317 214.054 199.684 211.451 144.626 211.451C89.5683 211.451 44.9353 214.054 44.9353 217.266C44.9353 220.477 89.5683 223.081 144.626 223.081Z" fill="#F5F5F5"/>
<path d="M167.299 211.193L172.441 210.473L171.155 198.483L166.014 199.203L167.299 211.193Z" fill="#E8BFBF"/>
<path d="M176.348 210.627C176.811 210.576 177.222 210.421 177.531 210.113C177.685 209.958 177.736 209.701 177.634 209.495C177.582 209.341 177.531 209.238 177.376 209.186C176.708 208.929 174.806 210.318 174.6 210.473C174.549 210.524 174.549 210.576 174.549 210.627C174.549 210.679 174.6 210.73 174.652 210.73C175.269 210.73 175.834 210.73 176.348 210.627ZM177.068 209.444C177.119 209.444 177.222 209.444 177.325 209.444C177.376 209.444 177.428 209.495 177.428 209.547C177.479 209.701 177.428 209.855 177.376 209.958C177.119 210.267 176.297 210.473 175.114 210.473C175.68 210.01 176.4 209.649 177.068 209.444Z" fill="#407BFF"/>
<path d="M174.754 210.73C175.371 210.318 176.4 209.032 176.194 208.466C176.143 208.363 176.04 208.157 175.68 208.209C175.423 208.209 175.217 208.312 175.011 208.517C174.446 209.135 174.549 210.576 174.549 210.627C174.549 210.679 174.549 210.73 174.6 210.73C174.652 210.73 174.703 210.73 174.754 210.73ZM175.628 208.466L175.68 208.414C175.885 208.414 175.937 208.466 175.937 208.517C176.04 208.878 175.371 209.855 174.806 210.319C174.754 209.752 174.909 209.135 175.217 208.62C175.32 208.517 175.474 208.466 175.628 208.466Z" fill="#407BFF"/>
<path d="M171.927 208.312L167.402 209.392C167.197 209.444 167.042 209.649 167.094 209.855L167.248 216.442C167.299 216.905 167.711 217.214 168.173 217.163C168.225 217.163 168.225 217.163 168.276 217.163C170.23 216.648 171.155 216.339 173.675 215.773C175.217 215.413 180.05 215.053 182.055 214.178C184.06 213.303 183.289 211.296 182.364 211.451C179.433 212.068 175.68 210.833 173.572 208.929C173.212 208.723 172.235 208.26 171.927 208.312Z" fill="#263238"/>
<path opacity="0.2" d="M171.155 198.483L171.824 204.658L166.682 205.378L166.014 199.203L171.155 198.483Z" fill="black"/>
<path d="M173.88 202.085L164.42 203.834C164.42 203.834 159.844 197.248 158.97 192.616C158.045 187.779 159.022 171.209 158.97 171.003C156.297 161.946 148.996 138.48 145.5 129.834C143.546 125.049 142.21 121.807 142.21 121.807L143.186 121.601L150.898 118.41L156.554 119.491C156.554 119.491 173.675 154.175 175.474 167.195C176.759 176.921 173.88 202.085 173.88 202.085Z" fill="#407BFF"/>
<path opacity="0.3" d="M173.88 202.085L164.42 203.834C164.42 203.834 159.844 197.248 158.97 192.616C158.045 187.779 159.022 171.209 158.97 171.003C156.297 161.946 148.996 138.48 145.5 129.834C143.546 125.049 142.21 121.807 142.21 121.807L143.186 121.601L150.898 118.41L156.554 119.491C156.554 119.491 173.675 154.175 175.474 167.195C176.759 176.921 173.88 202.085 173.88 202.085Z" fill="white"/>
<path opacity="0.2" d="M156.708 163.129C154.035 154.072 148.636 140.332 145.089 131.687L142.775 123.453L142.312 121.858L143.135 123.351L152.338 143.677C156.348 151.551 156.76 163.387 156.708 163.129Z" fill="black"/>
<path d="M115.115 208.363L119.69 210.318L124.523 199.821L119.999 197.917L115.115 208.363Z" fill="#E8BFBF"/>
<path d="M122.621 212.48C122.981 212.686 123.392 212.788 123.855 212.737C124.061 212.686 124.215 212.531 124.318 212.325C124.369 212.222 124.369 212.068 124.266 211.965C123.855 211.399 121.644 211.399 121.387 211.399C121.336 211.399 121.284 211.451 121.284 211.502C121.284 211.553 121.284 211.605 121.336 211.605C121.747 211.965 122.158 212.222 122.621 212.48ZM123.906 211.965C123.958 212.017 124.061 212.017 124.061 212.12C124.112 212.171 124.112 212.222 124.061 212.274C124.009 212.428 123.906 212.531 123.752 212.531C123.341 212.634 122.621 212.325 121.696 211.656C122.467 211.656 123.187 211.759 123.906 211.965Z" fill="#407BFF"/>
<path d="M121.336 211.656C122.004 211.708 123.547 211.245 123.752 210.73C123.804 210.576 123.804 210.421 123.495 210.215C123.289 210.061 123.032 210.01 122.827 210.061C122.056 210.215 121.336 211.399 121.284 211.451C121.284 211.502 121.233 211.502 121.284 211.553C121.284 211.605 121.336 211.605 121.336 211.656ZM123.289 210.37H123.341C123.547 210.473 123.495 210.576 123.495 210.576C123.392 210.884 122.313 211.296 121.593 211.348C121.901 210.884 122.313 210.473 122.827 210.267C123.032 210.267 123.187 210.318 123.289 210.37Z" fill="#407BFF"/>
<path d="M120.513 208.209L116.4 206.459C116.194 206.356 115.989 206.459 115.886 206.613L112.287 211.759C112.081 212.171 112.236 212.634 112.595 212.84C112.647 212.84 112.647 212.891 112.698 212.891C114.498 213.612 115.423 213.869 117.634 214.847C119.022 215.464 122.981 217.883 124.986 218.346C127.043 218.809 127.557 216.802 126.734 216.442C124.112 215.259 121.953 212.171 121.387 209.495C121.284 209.238 120.77 208.311 120.513 208.209Z" fill="#263238"/>
<path opacity="0.2" d="M124.729 199.975L122.107 205.275L117.583 203.268L120.205 197.917L124.729 199.975Z" fill="black"/>
<path d="M125.706 205.79L116.606 200.953C116.606 200.953 114.858 194.469 116.606 190.352C119.948 182.375 128.688 170.694 128.739 170.488C131.053 161.328 135.166 136.267 136.554 127.056C137.325 121.961 137.788 120.829 137.788 120.829L138.765 121.138L152.698 121.189C152.698 121.189 155.32 142.288 145.243 174.914C142.724 183.044 138.559 189.786 131.67 198.946C128.996 202.342 125.706 205.79 125.706 205.79Z" fill="#407BFF"/>
<path opacity="0.3" d="M125.706 205.79L116.606 200.953C116.606 200.953 114.858 194.469 116.606 190.352C119.948 182.375 128.688 170.694 128.739 170.488C131.053 161.328 135.166 136.267 136.554 127.056C137.325 121.961 137.788 120.829 137.788 120.829L138.765 121.138L152.698 121.189C152.698 121.189 155.32 142.288 145.243 174.914C142.724 183.044 138.559 189.786 131.67 198.946C128.996 202.342 125.706 205.79 125.706 205.79Z" fill="white"/>
<path d="M164.986 103.898C165.089 102.355 166.117 100.296 167.042 99.3699C167.351 99.0612 168.43 98.598 169.047 98.2378C172.081 96.2308 178.096 93.7607 178.096 93.7607L179.947 95.4075C179.947 95.4075 176.245 98.9582 174.086 100.656C173.675 101.017 173.16 101.377 172.646 101.84C171.669 102.612 167.197 105.597 166.374 106.317L164.986 103.898Z" fill="#E8BFBF"/>
<path d="M183.392 92.8859L179.947 95.4589L177.993 94.018C177.993 94.018 178.764 92.9888 179.587 92.2169C179.947 91.8567 180.153 91.3935 180.153 90.9304C180.153 90.1585 180.255 89.2837 180.667 88.6147V88.5632C181.438 87.4311 183.186 87.7913 183.495 89.0778L184.009 90.9304C184.266 91.6508 183.957 92.4227 183.392 92.8859Z" fill="#E8BFBF"/>
<path d="M166.065 104.619L165.14 105.442C164.832 105.236 164.42 104.825 163.855 104.362C159.433 100.656 148.328 91.7538 152.749 89.1808C156.554 87.0194 160.564 93.6578 162.569 95.7162C162.981 96.1279 164.112 97.4144 164.986 99.0612C165.963 100.759 166.682 102.818 166.065 104.619Z" fill="#263238"/>
<path d="M165.037 98.2378C163.443 99.3699 162.107 100.862 161.13 102.509C161.85 104.928 163.7 107.038 166.014 108.015C167.299 105.082 167.865 101.891 167.608 98.7009C166.785 98.598 165.808 98.4436 165.037 98.2378Z" fill="#263238"/>
<path d="M140.616 88.7177C139.022 89.2323 137.222 88.8206 136.194 90.1586C135.166 91.4965 134.857 93.1947 134.857 94.8929C134.857 97.2086 135.372 99.4729 135.937 101.737C136.554 104.465 137.222 107.192 137.839 109.971C138.251 111.823 137.839 120.52 138.302 120.675C138.302 120.675 152.852 120.366 156.502 119.903C156.502 119.903 156.811 110.949 157.119 107.912C157.171 107.243 158.199 104.362 158.353 103.641C158.919 100.245 157.788 97.8261 156.657 94.6356C156.657 94.6356 154.086 89.4381 152.852 89.2837C150.539 88.975 145.037 87.2768 140.616 88.7177Z" fill="#263238"/>
<path d="M139.999 92.9888C139.947 92.6801 137.377 87.4826 134.909 91.1362C131.464 96.2308 131.259 102.56 131.259 102.56C131.259 102.56 129.151 108.736 130.642 110.125C132.133 111.463 133.726 112.338 134.755 111.566C135.783 110.794 136.451 109.25 136.451 109.25C136.451 109.25 140.924 98.2892 139.999 92.9888Z" fill="#263238"/>
<path d="M139.845 86.7621C138.765 87.5855 138.919 89.5924 140.102 90.2614C139.793 91.2906 140.153 92.5257 140.976 93.2461C141.798 93.9666 143.032 94.1724 144.06 93.7607C143.649 94.5326 144.112 95.5618 144.883 96.0764C145.654 96.5396 146.58 96.6425 147.454 96.7454C148.328 96.8483 149.253 97.0542 149.922 97.6717C150.847 96.3337 151.772 95.0472 152.647 93.7093C153.006 93.1947 153.366 92.6286 153.418 92.0111C153.469 91.3935 152.955 90.6731 152.338 90.7246C152.955 90.0556 153.006 88.9234 152.389 88.2545C151.772 87.5855 150.59 87.4826 149.922 88.0486C150.024 87.534 149.716 86.9679 149.305 86.6592C148.842 86.3504 148.328 86.2475 147.762 86.196L139.845 86.7621Z" fill="#263238"/>
<path d="M141.49 80.0209C142.21 82.6454 143.084 87.4826 141.336 89.3867C141.336 89.3867 146.22 91.3422 149.716 95.3046C151.361 93.7093 151.156 91.9597 150.693 90.6732C150.333 89.644 149.459 88.9235 148.482 88.5118C146.58 87.6885 146.58 85.8359 146.888 84.0348L141.49 80.0209Z" fill="#E8BFBF"/>
<path opacity="0.2" d="M142.57 84.4979L144.369 85.0125C145.14 85.2184 145.963 85.2698 146.734 85.1669C146.734 85.5786 146.631 86.402 146.888 86.8136C145.86 87.3282 144.112 86.968 143.341 86.0417C143.032 85.6815 142.724 84.9611 142.57 84.4979Z" fill="black"/>
<path d="M137.994 77.808C139.896 81.8219 140.616 83.5716 143.546 84.8581C147.968 86.8136 152.492 83.5716 151.824 79.0431C151.207 74.9777 148.174 69.0597 143.495 69.0083C140.153 68.9568 137.377 71.6842 137.325 75.0291C137.377 76.0069 137.583 76.9846 137.994 77.808Z" fill="#E8BFBF"/>
<path d="M140.102 70.0889C138.714 69.4199 136.965 69.986 135.834 71.0152C134.652 72.0444 133.932 73.4853 133.264 74.9262C132.904 75.6981 132.493 76.47 132.338 77.2934C132.184 78.1167 132.235 79.043 132.647 79.7635C133.058 80.4839 133.881 80.947 134.703 80.9985C135.166 81.05 135.732 81.3587 135.886 81.8219C136.04 82.2336 135.937 82.6967 135.886 83.1598C135.834 83.5715 135.783 84.0347 135.886 84.4464C136.091 85.1153 136.811 85.527 137.531 85.6299C138.251 85.6814 138.971 85.4756 139.639 85.2697C140.05 85.1153 140.513 85.2183 140.821 85.527C140.924 85.5785 140.976 85.6814 141.027 85.7843C141.233 86.196 141.85 86.1445 142.055 85.6814C142.672 84.189 141.747 81.8219 140.41 80.0208C139.69 79.043 139.742 79.3003 139.433 78.1682C139.176 77.1904 139.536 76.2127 139.999 75.2864C140.564 74.1028 141.336 72.9192 141.079 71.4783C141.027 70.9123 140.667 70.3462 140.102 70.0889Z" fill="#263238"/>
<path d="M138.097 81.9248C138.714 82.5938 139.588 83.0055 140.513 83.0055C141.747 83.057 142.055 81.8734 141.439 80.8442C140.924 79.9179 139.639 78.8372 138.508 79.3004C137.48 79.7635 137.325 81.1015 138.097 81.9248Z" fill="#E8BFBF"/>
<path d="M145.706 77.0876C145.86 77.4478 146.117 77.6536 146.374 77.5507C146.58 77.4478 146.631 77.139 146.528 76.7788C146.426 76.4186 146.117 76.2642 145.86 76.3157C145.603 76.4186 145.552 76.7788 145.706 77.0876Z" fill="#263238"/>
<path d="M149.459 75.4924C149.613 75.8526 149.87 76.0584 150.076 75.9555C150.282 75.8526 150.333 75.5438 150.23 75.1836C150.127 74.8234 149.819 74.669 149.613 74.7205C149.356 74.7719 149.305 75.1321 149.459 75.4924Z" fill="#263238"/>
<path d="M149.51 74.7719L150.23 74.2058C150.23 74.2058 150.076 74.9777 149.51 74.7719Z" fill="#263238"/>
<path d="M148.482 76.2128C149.356 77.0876 150.024 77.242 150.95 77.808C150.898 78.6314 150.127 78.8372 150.127 78.8372L148.482 76.2128Z" fill="#ED847E"/>
<path d="M149.716 80.5355C149.87 80.484 150.025 80.3811 150.179 80.3296C150.23 80.2782 150.23 80.2267 150.23 80.1752C150.179 80.1238 150.127 80.1238 150.076 80.1238C149.253 80.5869 148.328 80.6384 147.454 80.2782C147.402 80.2267 147.351 80.2782 147.3 80.3296C147.248 80.3811 147.3 80.4325 147.351 80.484C148.122 80.7928 148.945 80.7928 149.716 80.5355Z" fill="#263238"/>
<path d="M145.552 74.3088C145.552 74.4117 145.5 74.4631 145.397 74.5146C144.42 74.8234 143.958 76.0584 143.958 76.0584C143.906 76.1613 143.803 76.2128 143.701 76.2128C143.598 76.1613 143.546 76.0584 143.546 75.9555C143.598 75.904 144.061 74.4631 145.243 74.1029C145.346 74.0515 145.5 74.1544 145.5 74.2573C145.552 74.2573 145.552 74.2573 145.552 74.3088Z" fill="#263238"/>
<path d="M150.076 73.6912C149.973 73.7427 149.87 73.7427 149.819 73.6912C148.996 73.0222 147.762 73.3824 147.711 73.3824C147.608 73.4339 147.454 73.331 147.454 73.2281C147.402 73.1251 147.505 72.9708 147.608 72.9708C147.659 72.9708 149.099 72.5591 150.076 73.331C150.179 73.4339 150.179 73.5368 150.127 73.6397C150.127 73.6397 150.127 73.6912 150.076 73.6912Z" fill="#263238"/>
<path d="M145.757 76.3671L146.477 75.801C146.477 75.801 146.323 76.6244 145.757 76.3671Z" fill="#263238"/>
<path d="M140.41 69.42C139.279 69.5229 138.199 70.1405 137.634 71.1182C137.222 71.7357 137.068 72.7135 137.685 73.1766C137.994 73.3825 138.354 73.4339 138.713 73.4339C140.256 73.5883 142.21 72.3533 142.21 72.3533C141.593 69.7802 146.991 67.8247 149.613 71.7872C150.384 72.9708 150.179 73.7941 151.464 74.3087C152.081 74.566 152.852 74.5146 153.263 75.0292C153.932 75.904 152.647 77.3964 153.469 78.1683C153.983 78.6829 155.217 78.477 155.32 79.2489C155.371 79.6092 155.114 80.1238 155.474 80.2267C155.68 80.2781 155.834 80.1238 155.937 79.9694C156.245 79.6092 156.503 79.1975 156.605 78.7343C156.708 78.2712 156.554 77.7051 156.091 77.5507C155.783 77.3964 154.909 77.5507 154.96 77.911C155.012 78.3227 154.652 76.2128 154.806 75.4409C154.96 74.7719 155.628 74.1544 155.423 73.4854C155.217 72.7649 154.343 72.4562 153.623 72.3533C152.904 72.2503 152.03 72.1474 151.567 71.5299C151.053 70.8609 151.31 69.8832 151.104 69.0598C150.898 68.0306 150.024 67.2072 149.048 66.7441C146.014 65.509 141.438 65.6634 140.41 69.42Z" fill="#263238"/>
<path d="M148.893 83.1599L138.611 88.306C135.217 90.0042 133.726 94.0181 135.063 97.5174L139.999 110.177C141.387 113.676 145.192 115.58 148.842 114.551L159.896 111.36C164.06 110.177 166.271 105.648 164.677 101.634L158.919 87.0195C157.428 83.0056 152.698 81.2044 148.893 83.1599ZM147.145 104.876C144.832 105.751 142.261 104.619 141.387 102.355C140.513 100.039 141.644 97.4659 143.906 96.5911C146.22 95.7163 148.79 96.8484 149.665 99.1127C150.59 101.428 149.459 104.001 147.145 104.876Z" fill="#407BFF"/>
<path d="M148.893 83.1599L138.611 88.306C135.217 90.0042 133.726 94.0181 135.063 97.5174L139.999 110.177C141.387 113.676 145.192 115.58 148.842 114.551L159.896 111.36C164.06 110.177 166.271 105.648 164.677 101.634L158.919 87.0195C157.428 83.0056 152.698 81.2044 148.893 83.1599ZM147.145 104.876C144.832 105.751 142.261 104.619 141.387 102.355C140.513 100.039 141.644 97.4659 143.906 96.5911C146.22 95.7163 148.79 96.8484 149.665 99.1127C150.59 101.428 149.459 104.001 147.145 104.876Z" fill="#407BFF"/>
<path opacity="0.1" d="M164.729 101.686L158.97 87.071C157.377 83.0571 152.698 81.256 148.842 83.2115L145.86 84.7038L143.855 85.733L138.559 88.409C135.166 90.1071 133.624 94.121 135.012 97.6204L139.947 110.28C141.336 113.83 145.192 115.683 148.791 114.654L159.844 111.463C160.77 111.206 161.541 110.794 162.261 110.228C162.826 109.816 163.289 109.353 163.7 108.787C165.243 106.78 165.654 104.156 164.729 101.686ZM147.145 104.876C144.832 105.751 142.261 104.619 141.387 102.355C140.513 100.039 141.644 97.466 143.906 96.5911C146.22 95.7163 148.791 96.8485 149.665 99.1127C150.59 101.428 149.459 104.001 147.145 104.876Z" fill="white"/>
<path d="M148.996 84.1377L139.33 88.9749C136.143 90.5702 134.703 94.3268 136.04 97.6203L140.667 109.508C141.953 112.801 145.551 114.602 148.945 113.624L159.33 110.64C163.238 109.508 165.294 105.288 163.803 101.531L158.405 87.7914C156.965 83.9833 152.595 82.2851 148.996 84.1377ZM141.387 102.355C140.513 100.039 141.644 97.4659 143.906 96.5911C146.22 95.7162 148.791 96.8484 149.665 99.1126C150.539 101.428 149.459 104.001 147.145 104.876C144.883 105.802 142.312 104.67 141.387 102.355Z" fill="#407BFF"/>
<path opacity="0.1" d="M148.996 84.1377L139.33 88.9749C136.143 90.5702 134.703 94.3268 136.04 97.6203L140.667 109.508C141.953 112.801 145.551 114.602 148.945 113.624L159.33 110.64C163.238 109.508 165.294 105.288 163.803 101.531L158.405 87.7914C156.965 83.9833 152.595 82.2851 148.996 84.1377ZM141.387 102.355C140.513 100.039 141.644 97.4659 143.906 96.5911C146.22 95.7162 148.791 96.8484 149.665 99.1126C150.539 101.428 149.459 104.001 147.145 104.876C144.883 105.802 142.312 104.67 141.387 102.355Z" fill="#407BFF"/>
<path d="M196.862 79.5577L196.554 80.0723L196.399 80.3811L195.937 81.2559L196.142 83.4173C196.142 83.5202 196.142 83.6231 196.091 83.6746C196.039 83.8804 195.885 84.0348 195.68 84.0862L191.618 85.6815C191.412 85.733 191.207 85.733 191.052 85.6301C191.001 85.5786 190.95 85.5786 190.898 85.5271L188.585 83.2114L185.294 84.4979L185.757 85.6815L182.466 86.968L183.238 88.975L180.821 89.9013C180.615 89.9527 180.41 89.9527 180.204 89.8498C180.153 89.7984 180.101 89.7983 180.05 89.7469L178.662 88.4604L175.371 89.7469L176.143 91.7538L172.698 93.0918L173.469 95.0988C173.572 95.4075 173.418 95.7677 173.109 95.9221L163.7 99.6273L159.639 89.2323L193.674 75.9041L194.189 76.1614L195.937 77.0362C197.016 77.4479 197.376 78.6315 196.862 79.5577Z" fill="#407BFF"/>
<g opacity="0.1">
<path d="M196.862 79.5577L196.554 80.0723L196.399 80.3811L195.937 81.2559L196.142 83.4173C196.142 83.5202 196.142 83.6231 196.091 83.6746C196.039 83.8804 195.885 84.0348 195.68 84.0862L191.618 85.6815C191.412 85.733 191.207 85.733 191.052 85.6301C191.001 85.5786 190.95 85.5786 190.898 85.5271L188.585 83.2114L185.294 84.4979L185.757 85.6815L182.466 86.968L183.238 88.975L180.821 89.9013C180.615 89.9527 180.41 89.9527 180.204 89.8498C180.153 89.7984 180.101 89.7983 180.05 89.7469L178.662 88.4604L175.371 89.7469L176.143 91.7538L172.698 93.0918L173.469 95.0988C173.572 95.4075 173.418 95.7677 173.109 95.9221L163.7 99.6273L159.639 89.2323L193.674 75.9041L194.189 76.1614L195.937 77.0362C197.016 77.4479 197.376 78.6315 196.862 79.5577Z" fill="white"/>
</g>
<path d="M196.759 78.3741L160.358 92.6287L159.279 89.9527L193.983 76.3672L195.731 77.242C196.399 77.5508 196.759 77.911 196.759 78.3741Z" fill="#407BFF"/>
<path opacity="0.1" d="M196.759 78.3741L160.358 92.6287L159.279 89.9527L193.983 76.3672L195.731 77.242C196.399 77.5508 196.759 77.911 196.759 78.3741Z" fill="black"/>
<path d="M196.039 80.3811L195.68 81.153V81.2045L195.885 83.3658C195.885 83.4687 195.885 83.5202 195.885 83.5716C195.885 83.5716 195.885 83.6231 195.834 83.6231L191.412 85.3727H191.361C191.309 85.3213 191.258 85.3213 191.258 85.2698L188.739 82.7483C188.739 82.7483 188.687 82.6968 188.636 82.7483L185.037 84.1377C184.986 84.1377 184.986 84.1892 184.986 84.2406L185.397 85.3213C185.397 85.3727 185.397 85.4242 185.345 85.4242L182.312 86.6078C182.261 86.6078 182.261 86.6593 182.261 86.7107L182.98 88.5633C182.98 88.6147 182.98 88.6662 182.929 88.6662L180.667 89.541H180.615C180.564 89.4896 180.513 89.4896 180.461 89.4381L178.816 87.9458C178.816 87.9458 178.765 87.8943 178.713 87.9458L175.166 89.3352C175.114 89.3352 175.114 89.3867 175.114 89.4381L175.885 91.3421C175.885 91.3936 175.885 91.4451 175.834 91.4451L162.158 96.8484C162.107 96.8484 162.055 96.8484 162.055 96.7969L160.667 93.3491C160.667 93.2976 160.667 93.2462 160.718 93.2462L196.348 79.1975C196.399 79.146 196.502 79.249 196.451 79.3004L196.039 80.3811Z" fill="#407BFF"/>
<path opacity="0.1" d="M196.039 80.3811L195.68 81.153V81.2045L195.885 83.3658C195.885 83.4687 195.885 83.5202 195.885 83.5716C195.885 83.5716 195.885 83.6231 195.834 83.6231L191.412 85.3727H191.361C191.309 85.3213 191.258 85.3213 191.258 85.2698L188.739 82.7483C188.739 82.7483 188.687 82.6968 188.636 82.7483L185.037 84.1377C184.986 84.1377 184.986 84.1892 184.986 84.2406L185.397 85.3213C185.397 85.3727 185.397 85.4242 185.345 85.4242L182.312 86.6078C182.261 86.6078 182.261 86.6593 182.261 86.7107L182.98 88.5633C182.98 88.6147 182.98 88.6662 182.929 88.6662L180.667 89.541H180.615C180.564 89.4896 180.513 89.4896 180.461 89.4381L178.816 87.9458C178.816 87.9458 178.765 87.8943 178.713 87.9458L175.166 89.3352C175.114 89.3352 175.114 89.3867 175.114 89.4381L175.885 91.3421C175.885 91.3936 175.885 91.4451 175.834 91.4451L162.158 96.8484C162.107 96.8484 162.055 96.8484 162.055 96.7969L160.667 93.3491C160.667 93.2976 160.667 93.2462 160.718 93.2462L196.348 79.1975C196.399 79.146 196.502 79.249 196.451 79.3004L196.039 80.3811Z" fill="black"/>
<path opacity="0.3" d="M143.649 95.459C140.77 96.5911 139.382 99.8331 140.462 102.715C141.593 105.597 144.832 106.986 147.711 105.905C150.59 104.773 151.978 101.531 150.898 98.6496C149.767 95.7678 146.528 94.3269 143.649 95.459ZM147.145 104.876C144.832 105.751 142.261 104.619 141.387 102.355C140.513 100.039 141.644 97.466 143.906 96.5911C146.22 95.7163 148.791 96.8484 149.665 99.1127C150.59 101.428 149.459 104.001 147.145 104.876Z" fill="white"/>
<path opacity="0.1" d="M163.752 108.736C163.341 109.302 162.878 109.765 162.312 110.177L143.855 85.6815C143.855 85.6815 145.5 84.8581 145.86 84.6008V84.6523C146.683 86.4019 161.233 105.236 163.752 108.736Z" fill="white"/>
<path opacity="0.1" d="M161.078 110.948C160.975 111 155.577 112.647 155.577 112.647L149.613 104.67C151.156 103.127 151.721 100.811 150.898 98.6495C149.767 95.7677 146.528 94.3268 143.649 95.4589C143.392 95.5618 143.135 95.6648 142.929 95.8191L137.634 88.7691C137.634 88.7691 142.312 86.5563 142.827 86.196C142.929 87.2253 161.078 110.743 161.078 110.948Z" fill="white"/>
<path d="M139.073 72.3018C138.456 73.0222 138.251 74 138.405 74.9263C138.611 75.8525 139.228 76.6244 140.102 77.0361C140.564 77.242 141.027 77.3449 141.438 77.5507C141.85 77.7566 142.261 78.1168 142.312 78.6314C142.364 79.146 141.952 79.6606 142.004 80.1752C142.055 80.6383 142.415 81.05 142.826 81.3588C143.238 81.6676 143.649 81.9249 143.855 82.388C144.06 82.8511 143.906 83.4687 143.443 83.623C143.341 83.7774 143.289 84.1377 143.443 84.292C143.546 84.4464 143.803 84.4464 143.958 84.3435C144.677 83.8803 145.191 83.057 145.191 82.1822C145.191 81.3073 144.677 80.484 143.906 80.1237C143.752 79.815 143.855 79.5062 144.009 79.1975C144.266 78.6314 144.472 78.0139 144.729 77.4478C144.832 77.242 144.729 76.7788 144.575 76.6244C144.42 76.4186 144.163 76.3157 143.958 76.2128L142.467 75.5438C141.901 75.2865 140.204 73.0222 142.21 72.3532C141.952 71.7872 141.49 71.5813 140.873 71.4784C140.153 71.3755 139.485 71.7872 139.073 72.3018Z" fill="#263238"/>
<path d="M141.85 69.8317C141.798 70.4492 141.747 71.0153 141.695 71.6328C142.21 70.8094 143.135 69.2142 143.084 69.2656C142.672 69.5229 142.21 69.6258 141.85 69.8317Z" fill="#263238"/>
<path d="M142.518 70.8095C143.238 70.1405 143.906 69.5229 144.626 68.854C144.06 68.6481 143.444 68.8025 143.032 69.2142C143.032 69.2142 142.724 70.1919 142.518 70.8095Z" fill="#263238"/>
<path d="M138.251 119.542C135.526 122.939 136.4 125.563 132.647 131.584C137.428 135.135 142.672 135.701 149.15 135.186C149.922 133.848 150.333 132.408 151.053 131.018C152.132 132.408 153.058 133.54 154.137 134.929C157.531 134.414 161.592 133.437 164.317 131.687C161.952 128.96 160.461 125.563 158.919 122.527C158.199 121.138 158.508 120.52 156.605 118.668C150.59 118.925 144.575 119.079 138.559 119.388C138.713 119.388 138.045 119.491 138.251 119.542Z" fill="#263238"/>
<path d="M138.971 118.925L138.611 120.52C138.559 120.623 138.714 120.777 138.919 120.777L155.577 120.057C155.731 120.057 155.886 119.954 155.886 119.851L155.988 118.256C155.988 118.153 155.834 118.05 155.68 118.05L139.33 118.77C139.125 118.822 139.022 118.873 138.971 118.925Z" fill="#407BFF"/>
<path d="M138.971 118.925L138.611 120.52C138.559 120.623 138.714 120.777 138.919 120.777L155.577 120.057C155.731 120.057 155.886 119.954 155.886 119.851L155.988 118.256C155.988 118.153 155.834 118.05 155.68 118.05L139.33 118.77C139.125 118.822 139.022 118.873 138.971 118.925Z" fill="#407BFF"/>
<path d="M142.621 120.777H142.158C142.055 120.777 142.004 120.726 142.004 120.674L142.158 118.616C142.158 118.565 142.261 118.513 142.364 118.513L142.827 118.462C142.929 118.462 142.981 118.513 142.981 118.565L142.827 120.623C142.827 120.726 142.724 120.777 142.621 120.777Z" fill="#263238"/>
<path d="M154.652 120.263H154.189C154.086 120.263 154.035 120.211 154.035 120.16L154.189 118.101C154.189 118.05 154.292 117.999 154.343 117.999H154.806C154.909 117.999 154.96 118.05 154.96 118.101L154.806 120.16C154.857 120.211 154.754 120.263 154.652 120.263Z" fill="#263238"/>
<path d="M144.78 110.794C144.832 110.949 146.117 113.007 147.094 112.853C147.402 112.801 147.659 112.955 147.865 113.161C148.276 113.676 148.533 113.985 148.79 114.345C149.253 114.911 150.024 115.117 150.641 114.808C150.847 114.705 151.001 114.602 151.207 114.499C151.824 114.191 152.132 113.47 151.978 112.75C151.772 111.978 151.515 111.257 151.104 110.588C150.95 110.382 150.796 110.125 150.59 109.971C150.384 109.816 148.122 109.147 147.248 109.199C146.477 109.25 145.603 110.434 144.78 110.794Z" fill="#E8BFBF"/>
<path d="M147.402 109.147C147.402 109.147 133.726 105.031 130.796 107.758C129.048 109.405 129.87 110.897 130.847 111.875C131.567 112.595 133.161 112.441 134.189 112.389L144.934 111.309L147.402 109.147Z" fill="#E8BFBF"/>
<path d="M139.536 107.243C139.485 106.523 138.868 105.905 138.199 105.545C137.531 105.236 136.76 105.133 136.04 105.031C134.343 104.825 132.595 104.619 130.899 104.362C130.025 105.442 129.408 106.986 129.408 108.375C129.459 109.765 129.973 111.154 130.899 112.235C131.721 110.64 132.801 108.993 134.395 108.221C136.04 107.449 137.788 106.935 139.536 107.243Z" fill="#263238"/>
<path opacity="0.1" d="M136.04 82.2851C136.04 82.2336 136.04 82.2336 136.04 82.2336C136.143 82.1822 136.091 82.1822 136.04 82.2851Z" fill="white"/>
<path d="M169.973 56.3221L173.778 65.397L189.304 48.3732C189.459 48.2407 189.304 47.9758 189.15 48.1083L174.6 60.4952L172.338 54.8648L169.973 56.3221Z" fill="#407BFF"/>
<path d="M194.497 56.3883C194.497 64.4696 187.916 71.0937 179.742 71.0937C176.605 71.0937 173.726 70.1001 171.31 68.4441L162.672 73.2796L168.122 65.4632C166.168 62.9461 164.986 59.8328 164.986 56.3883C164.986 48.3069 171.567 41.6829 179.742 41.6829C187.865 41.6829 194.497 48.2407 194.497 56.3883Z" stroke="#407BFF" stroke-width="1.3" stroke-miterlimit="10"/>
</svg>
